<svg height="512" viewBox="0 0 64 64" width="512" xmlns="http://www.w3.org/2000/svg"><g id="icon"><path d="m28.831 26.436-4.445-11.111c-.32-.802-1.085-1.319-1.948-1.319s-1.628.518-1.948 1.319l-4.444 11.111c-.205.513.045 1.095.558 1.3.509.204 1.095-.044 1.3-.558l1.418-3.546c.118.049.248.078.384.078h5.465c.137 0 .266-.028.385-.078l1.419 3.546c.156.392.532.629.929.629.124 0 .25-.022.371-.071.511-.205.761-.787.556-1.3zm-8.741-4.726 2.257-5.643c.02-.049.162-.049.182 0l2.257 5.643z"/><path d="m48.392 35.487h-6.565v-1.521c0-.553-.447-1-1-1s-1 .447-1 1v1.521h-5.305c-.553 0-1 .447-1 1s.447 1 1 1h10.18c-.455 1.568-1.86 3.299-3.514 4.881l-2.859-3.482c-.35-.425-.979-.49-1.407-.138-.427.351-.488.98-.138 1.407l2.915 3.549c-1.688 1.43-3.396 2.626-4.446 3.284-.468.293-.61.909-.317 1.378.189.304.516.47.849.47.181 0 .364-.049.529-.152.467-.292 2.504-1.596 4.665-3.42l1.597 1.945c.197.24.484.365.773.365.223 0 .447-.074.634-.228.427-.351.488-.98.138-1.407l-1.654-2.014c2.02-1.921 3.857-4.199 4.3-6.439h1.625c.553 0 1-.447 1-1s-.447-.999-1-.999z"/><path d="m12.207 55.999c-.158 0-.319-.027-.476-.084-.551-.2-.907-.708-.907-1.294v-41.284c0-2.941 2.394-5.334 5.335-5.334h35.191c.538 0 1.029.316 1.252.806s.139 1.068-.215 1.474l-33.497 38.458-5.632 6.76c-.27.323-.653.498-1.051.498zm3.952-45.996c-1.839 0-3.335 1.496-3.335 3.334v39.561l4.551-5.462 32.604-37.433z"/><path d="m47.841 55.398h-29.961c-.553 0-1-.447-1-1s.447-1 1-1h29.961c1.839 0 3.335-1.496 3.335-3.335v-33.908c0-.553.447-1 1-1s1 .447 1 1v33.908c0 2.942-2.394 5.335-5.335 5.335z"/></g></svg>