<svg width="24" height="24" viewBox="0 0 24 24" fill="none" xmlns="http://www.w3.org/2000/svg">
<g clip-path="url(#clip0_84_243)">
<path d="M22.0781 23.4844H1.92188C0.888 23.4844 0.046875 22.6432 0.046875 21.6094V4.26562C0.046875 3.23175 0.888 2.39062 1.92188 2.39062H3.32812C3.58697 2.39062 3.79688 2.60053 3.79688 2.85938V3.77452C3.79688 4.03641 3.99938 4.25658 4.24837 4.2653C4.51359 4.27542 4.73438 4.06345 4.73438 3.79688V2.85938C4.73438 2.60053 4.94428 2.39062 5.20312 2.39062H8.48438C8.74327 2.39062 8.95312 2.60053 8.95312 2.85938V3.77452C8.95312 4.03641 9.15563 4.25658 9.40462 4.2653C9.66778 4.27537 9.89062 4.06523 9.89062 3.79688V2.85938C9.89062 2.60053 10.1005 2.39062 10.3594 2.39062H13.6406C13.8995 2.39062 14.1094 2.60053 14.1094 2.85938V3.77452C14.1094 4.03641 14.3119 4.25658 14.5609 4.2653C14.824 4.27533 15.0469 4.06528 15.0469 3.79688V2.85938C15.0469 2.60053 15.2568 2.39062 15.5156 2.39062H18.7969C19.0557 2.39062 19.2656 2.60053 19.2656 2.85938V3.77452C19.2656 4.03641 19.4681 4.25658 19.7171 4.2653C19.9803 4.27537 20.2031 4.06523 20.2031 3.79688V2.85938C20.2031 2.60053 20.413 2.39062 20.6719 2.39062H22.0781C23.112 2.39062 23.9531 3.23175 23.9531 4.26562V21.6094C23.9531 22.6432 23.112 23.4844 22.0781 23.4844ZM1.92188 3.32812C1.40494 3.32812 0.984375 3.74869 0.984375 4.26562V21.6094C0.984375 22.1263 1.40494 22.5469 1.92188 22.5469H22.0781C22.5951 22.5469 23.0156 22.1263 23.0156 21.6094V4.26562C23.0156 3.74869 22.5951 3.32812 22.0781 3.32812H21.1406V3.79688C21.1406 4.59408 20.4819 5.2297 19.6843 5.20223C18.9238 5.17561 18.3281 4.54847 18.3281 3.77452V3.32812H15.9844V3.79688C15.9844 4.59159 15.3283 5.22984 14.5281 5.20223C13.7676 5.17561 13.1719 4.54847 13.1719 3.77452V3.32812H10.8281V3.79688C10.8281 4.58836 10.1752 5.22989 9.37181 5.20223C8.61131 5.17561 8.01562 4.54847 8.01562 3.77452V3.32812H5.67188V3.79688C5.67188 4.5923 5.0152 5.2298 4.21556 5.20223C3.45506 5.17561 2.85938 4.54847 2.85938 3.77452V3.32812H1.92188Z" fill="white"/>
<path d="M23.4844 8.01562H0.515625C0.256734 8.01562 0.046875 7.80577 0.046875 7.54688C0.046875 7.28798 0.256734 7.07812 0.515625 7.07812H23.4844C23.7432 7.07812 23.9531 7.28798 23.9531 7.54688C23.9531 7.80577 23.7432 8.01562 23.4844 8.01562Z" fill="white"/>
<path d="M19.7344 5.20312C18.959 5.20312 18.3281 4.57228 18.3281 3.79688V1.92188C18.3281 1.14647 18.959 0.515625 19.7344 0.515625C20.5114 0.515625 21.1406 1.14492 21.1406 1.92188V3.79688C21.1406 4.57228 20.5098 5.20312 19.7344 5.20312ZM19.7344 1.45312C19.4759 1.45312 19.2656 1.66341 19.2656 1.92188V3.79688C19.2656 4.05534 19.4759 4.26562 19.7344 4.26562C19.9928 4.26562 20.2031 4.05534 20.2031 3.79688V1.92188C20.2031 1.79681 20.1543 1.67916 20.0657 1.59056C19.9771 1.50192 19.8594 1.45312 19.7344 1.45312Z" fill="white"/>
<path d="M14.5781 5.20312C13.8027 5.20312 13.1719 4.57228 13.1719 3.79688V1.92188C13.1719 1.14647 13.8027 0.515625 14.5781 0.515625C15.3551 0.515625 15.9844 1.14492 15.9844 1.92188V3.79688C15.9844 4.57228 15.3535 5.20312 14.5781 5.20312ZM14.5781 1.45312C14.3197 1.45312 14.1094 1.66341 14.1094 1.92188V3.79688C14.1094 4.05534 14.3197 4.26562 14.5781 4.26562C14.8366 4.26562 15.0469 4.05534 15.0469 3.79688V1.92188C15.0469 1.66317 14.8369 1.45312 14.5781 1.45312Z" fill="white"/>
<path d="M9.42188 5.20312C8.64647 5.20312 8.01562 4.57228 8.01562 3.79688V1.92188C8.01562 1.14647 8.64647 0.515625 9.42188 0.515625C10.1989 0.515625 10.8281 1.14492 10.8281 1.92188V3.79688C10.8281 4.57228 10.1973 5.20312 9.42188 5.20312ZM9.42188 1.45312C9.16341 1.45312 8.95312 1.66341 8.95312 1.92188V3.79688C8.95312 4.05534 9.16341 4.26562 9.42188 4.26562C9.68034 4.26562 9.89062 4.05534 9.89062 3.79688V1.92188C9.89062 1.66317 9.68067 1.45312 9.42188 1.45312Z" fill="white"/>
<path d="M4.26562 5.20312C3.49022 5.20312 2.85938 4.57228 2.85938 3.79688V1.92188C2.85938 1.14647 3.49022 0.515625 4.26562 0.515625C5.04262 0.515625 5.67188 1.14492 5.67188 1.92188V3.79688C5.67188 4.57228 5.04103 5.20312 4.26562 5.20312ZM4.26562 1.45312C4.00716 1.45312 3.79688 1.66341 3.79688 1.92188V3.79688C3.79688 4.05534 4.00716 4.26562 4.26562 4.26562C4.52409 4.26562 4.73438 4.05534 4.73438 3.79688V1.92188C4.73438 1.66317 4.52442 1.45312 4.26562 1.45312Z" fill="white"/>
<path d="M5.20312 14.1094H3.32812C3.06928 14.1094 2.85938 13.8995 2.85938 13.6406V9.89062C2.85938 9.63173 3.06928 9.42188 3.32812 9.42188H5.20312C5.46197 9.42188 5.67188 9.63173 5.67188 9.89062C5.67188 10.1495 5.46197 10.3594 5.20312 10.3594H3.79688V13.1719H5.20312C5.46197 13.1719 5.67188 13.3818 5.67188 13.6406C5.67188 13.8995 5.46197 14.1094 5.20312 14.1094Z" fill="white"/>
<path d="M16.9219 14.1094H15.0469C14.788 14.1094 14.5781 13.8995 14.5781 13.6406V9.89062C14.5781 9.63173 14.788 9.42188 15.0469 9.42188H16.9219C17.1807 9.42188 17.3906 9.63173 17.3906 9.89062C17.3906 10.1495 17.1807 10.3594 16.9219 10.3594H15.5156V13.1719H16.9219C17.1807 13.1719 17.3906 13.3818 17.3906 13.6406C17.3906 13.8995 17.1807 14.1094 16.9219 14.1094Z" fill="white"/>
<path d="M7.07812 14.1094C6.81923 14.1094 6.60938 13.8995 6.60938 13.6406V9.89062C6.60938 9.63173 6.81923 9.42188 7.07812 9.42188C7.33702 9.42188 7.54688 9.63173 7.54688 9.89062V13.6406C7.54688 13.8995 7.33702 14.1094 7.07812 14.1094Z" fill="white"/>
<path d="M9.42188 14.1094C9.16298 14.1094 8.95312 13.8995 8.95312 13.6406V9.89062C8.95312 9.63173 9.16298 9.42188 9.42188 9.42188C9.68077 9.42188 9.89062 9.63173 9.89062 9.89062V13.6406C9.89062 13.8995 9.68077 14.1094 9.42188 14.1094Z" fill="white"/>
<path d="M9.42188 12.2344H7.07812C6.81923 12.2344 6.60938 12.0245 6.60938 11.7656C6.60938 11.5067 6.81923 11.2969 7.07812 11.2969H9.42188C9.68077 11.2969 9.89062 11.5067 9.89062 11.7656C9.89062 12.0245 9.68077 12.2344 9.42188 12.2344Z" fill="white"/>
<path d="M13.1719 14.1094H11.2969C11.038 14.1094 10.8281 13.8995 10.8281 13.6406V9.89062C10.8281 9.63173 11.038 9.42188 11.2969 9.42188H13.1719C13.4307 9.42188 13.6406 9.63173 13.6406 9.89062C13.6406 10.1495 13.4307 10.3594 13.1719 10.3594H11.7656V13.1719H13.1719C13.4307 13.1719 13.6406 13.3818 13.6406 13.6406C13.6406 13.8995 13.4307 14.1094 13.1719 14.1094Z" fill="white"/>
<path d="M13.1719 12.2344H11.2969C11.038 12.2344 10.8281 12.0245 10.8281 11.7656C10.8281 11.5067 11.038 11.2969 11.2969 11.2969H13.1719C13.4307 11.2969 13.6406 11.5067 13.6406 11.7656C13.6406 12.0245 13.4307 12.2344 13.1719 12.2344Z" fill="white"/>
<path d="M18.7969 14.1094C18.538 14.1094 18.3281 13.8995 18.3281 13.6406V9.89062C18.3281 9.63173 18.538 9.42188 18.7969 9.42188C19.0557 9.42188 19.2656 9.63173 19.2656 9.89062V13.6406C19.2656 13.8995 19.0557 14.1094 18.7969 14.1094Z" fill="white"/>
<path d="M20.3059 13.9335L18.4309 11.5897C18.2691 11.3875 18.3019 11.0926 18.504 10.9308C18.7063 10.7692 19.0012 10.8019 19.1629 11.004L21.0379 13.3478C21.1996 13.5499 21.1669 13.8449 20.9647 14.0066C20.7635 14.1676 20.4684 14.1365 20.3059 13.9335Z" fill="white"/>
<path d="M18.5041 12.6004C18.3019 12.4387 18.2691 12.1437 18.4309 11.9416L20.3059 9.59781C20.4676 9.39573 20.7626 9.36282 20.9648 9.52464C21.1669 9.68636 21.1997 9.98134 21.0379 10.1835L19.1629 12.5273C19.0008 12.7299 18.7056 12.7617 18.5041 12.6004Z" fill="white"/>
<path d="M3.32812 20.6719C3.06928 20.6719 2.85938 20.462 2.85938 20.2031V16.4531C2.85938 16.1943 3.06928 15.9844 3.32812 15.9844C3.58697 15.9844 3.79688 16.1943 3.79688 16.4531V20.2031C3.79688 20.462 3.58697 20.6719 3.32812 20.6719Z" fill="white"/>
<path d="M7.14938 20.4516L5.67188 18.0876V20.2031C5.67188 20.462 5.46197 20.6719 5.20312 20.6719C4.94428 20.6719 4.73438 20.462 4.73438 20.2031V16.4531C4.73438 16.244 4.87289 16.0602 5.07389 16.0026C5.27489 15.945 5.48977 16.0274 5.60063 16.2047L7.07812 18.5687V16.4531C7.07812 16.1943 7.28798 15.9844 7.54688 15.9844C7.80577 15.9844 8.01562 16.1943 8.01562 16.4531V20.2031C8.01562 20.4122 7.87711 20.5961 7.67611 20.6537C7.47516 20.7113 7.26028 20.629 7.14938 20.4516Z" fill="white"/>
<path d="M11.4342 21.0033L9.09041 18.6596C8.90736 18.4766 8.90736 18.1797 9.09041 17.9966L11.4342 15.6529C11.5682 15.5189 11.7698 15.4788 11.945 15.5513C12.1201 15.6238 12.2344 15.7947 12.2344 15.9843V16.9218H20.6719C20.9307 16.9218 21.1406 17.1318 21.1406 17.3906V19.2656C21.1406 19.5244 20.9307 19.7343 20.6719 19.7343H12.2344V20.6718C12.2344 20.8615 12.1202 21.0324 11.945 21.1049C11.7698 21.1774 11.5682 21.1374 11.4342 21.0033ZM10.0848 18.3281L11.2969 19.5402V19.2656C11.2969 19.0068 11.5067 18.7969 11.7656 18.7969H20.2031V17.8594H11.7656C11.5067 17.8594 11.2969 17.6495 11.2969 17.3906V17.1161L10.0848 18.3281Z" fill="white"/>
</g>
<defs>
<clipPath id="clip0_84_243">
<rect width="24" height="24" fill="white"/>
</clipPath>
</defs>
</svg>
