<svg width="24" height="24" viewBox="0 0 24 24" fill="none" xmlns="http://www.w3.org/2000/svg">
<path fill-rule="evenodd" clip-rule="evenodd" d="M12 1.14286C6.00376 1.14286 1.14286 6.00376 1.14286 12C1.14286 17.9962 6.00376 22.8571 12 22.8571C17.9962 22.8571 22.8571 17.9962 22.8571 12C22.8571 6.00376 17.9962 1.14286 12 1.14286ZM0 12C0 5.37258 5.37258 0 12 0C18.6274 0 24 5.37258 24 12C24 18.6274 18.6274 24 12 24C5.37258 24 0 18.6274 0 12Z" fill="#787878"/>
<path fill-rule="evenodd" clip-rule="evenodd" d="M11.4286 11.4291V4.00049H12.5714V12.0005C12.5714 12.316 12.3155 12.5719 12 12.5719H6.28572V11.4291H11.4286Z" fill="#787878"/>
</svg>
