<svg width="56" height="56" viewBox="0 0 56 56" fill="none" xmlns="http://www.w3.org/2000/svg">
<path d="M28 2.33325C22.9236 2.33325 17.9612 3.83858 13.7404 6.65887C9.51951 9.47916 6.22975 13.4877 4.2871 18.1777C2.34445 22.8677 1.83616 28.0284 2.82652 33.0072C3.81687 37.9861 6.26138 42.5594 9.85093 46.149C13.4405 49.7385 18.0138 52.1831 22.9927 53.1734C27.9715 54.1638 33.1322 53.6555 37.8222 51.7128C42.5122 49.7702 46.5208 46.4804 49.3411 42.2596C52.1614 38.0387 53.6667 33.0763 53.6667 27.9999C53.6586 21.1952 50.9519 14.6714 46.1402 9.85971C41.3285 5.04802 34.8048 2.34128 28 2.33325ZM39.6667 30.3333H30.3333V39.6666C30.3333 40.2854 30.0875 40.8789 29.6499 41.3165C29.2123 41.7541 28.6188 41.9999 28 41.9999C27.3812 41.9999 26.7877 41.7541 26.3501 41.3165C25.9125 40.8789 25.6667 40.2854 25.6667 39.6666V30.3333H16.3333C15.7145 30.3333 15.121 30.0874 14.6834 29.6498C14.2458 29.2123 14 28.6188 14 27.9999C14 27.3811 14.2458 26.7876 14.6834 26.35C15.121 25.9124 15.7145 25.6666 16.3333 25.6666H25.6667V16.3333C25.6667 15.7144 25.9125 15.1209 26.3501 14.6833C26.7877 14.2458 27.3812 13.9999 28 13.9999C28.6188 13.9999 29.2123 14.2458 29.6499 14.6833C30.0875 15.1209 30.3333 15.7144 30.3333 16.3333V25.6666H39.6667C40.2855 25.6666 40.879 25.9124 41.3166 26.35C41.7542 26.7876 42 27.3811 42 27.9999C42 28.6188 41.7542 29.2123 41.3166 29.6498C40.879 30.0874 40.2855 30.3333 39.6667 30.3333Z" fill="url(#paint0_linear_26_85)"/>
<defs>
<linearGradient id="paint0_linear_26_85" x1="28" y1="2.33325" x2="28" y2="53.6666" gradientUnits="userSpaceOnUse">
<stop stop-color="#5184DC"/>
<stop offset="1" stop-color="#897DD7"/>
</linearGradient>
</defs>
</svg>
