<svg width="24" height="24" viewBox="0 0 24 24" fill="none" xmlns="http://www.w3.org/2000/svg">
<g clip-path="url(#clip0_96_140)">
<path d="M23.4883 13.8741H22.6698C22.6698 13.4805 22.6698 13.2219 22.6698 12.837C22.6698 12.5759 22.4581 12.3642 22.197 12.3642H21.9174C21.9506 11.9556 21.6871 11.5702 21.2765 11.4647C20.9503 11.3808 18.8929 10.852 18.5756 10.7705L19.4457 8.49184C19.6976 7.83203 19.3672 7.09253 18.7069 6.84039L16.7151 6.06976C16.3334 5.92206 15.9234 5.88433 15.5208 5.9582C13.9404 6.24812 11.3429 6.7247 11.0428 6.77954C10.8444 6.81583 10.6652 6.92083 10.5364 7.07612L8.76837 9.21001V2.78289C8.76837 2.53173 8.60266 2.31076 8.36159 2.2404L4.55815 1.1304H14.4196V5.30345L15.5498 5.15579V0.565279C15.5498 0.253185 15.2968 0.00015402 14.9847 0.00015402C14.9046 0.00015402 0.601946 -0.0011116 0.558259 0.00249777C0.259009 0.027154 0.0393996 0.278685 0.0393996 0.565279C0.0393996 0.703935 0.0367277 21.2273 0.0442746 21.2875C0.073009 21.5159 0.236228 21.6979 0.446228 21.7593L8.04499 23.9769C8.40701 24.0827 8.76842 23.81 8.76842 23.4344V11.7304C8.89938 11.6792 9.01999 11.5962 9.11604 11.4802L11.6587 8.4114C11.9682 8.35483 14.1439 7.95686 14.4936 7.89292L12.5828 12.8974C12.5828 12.8974 12.6509 12.7253 11.3776 17.0842L9.89567 19.901V22.5698C10.3318 22.6762 10.799 22.4771 11.0164 22.0638L13.1932 17.926C13.2243 17.867 13.2493 17.805 13.268 17.7409L14.4722 13.6188C14.5598 13.6523 14.5166 13.6358 14.7436 13.7224C15.0468 14.1987 16.5394 16.5428 16.8413 17.0171L15.3334 21.2642C15.1487 21.7843 15.4206 22.3557 15.9408 22.5404C16.4581 22.7241 17.032 22.4541 17.217 21.933L18.8881 17.2262C18.9886 16.9432 18.9586 16.6207 18.7894 16.355L17.3228 14.0517C17.5365 13.492 17.7448 12.9464 17.9596 12.384C18.7738 12.5933 19.3099 12.7311 19.3099 12.7311L19.2976 13.8742H18.479C18.3727 13.8742 18.2749 13.9098 18.196 13.969L19.4481 15.9356C19.7447 16.4014 19.8088 16.9671 19.6241 17.4875L19.4161 18.0733H23.4884C23.7494 18.0733 23.961 17.8617 23.961 17.6007V14.3469C23.961 14.0858 23.7494 13.8741 23.4883 13.8741ZM7.1577 14.8579C7.1577 15.17 6.90466 15.4231 6.59257 15.4231C6.28048 15.4231 6.02745 15.17 6.02745 14.8579V11.5956C6.02745 11.2835 6.28048 11.0305 6.59257 11.0305C6.90466 11.0305 7.1577 11.2835 7.1577 11.5956V14.8579ZM21.7243 13.8741H21.7243H20.2431V13.3097H21.7243V13.8741Z" fill="white"/>
<path d="M14.8033 15.2703L14.4195 16.5841V20.6518H12.6416L12.047 21.7821H14.5035C14.4763 21.5219 14.5073 21.2568 14.5975 21.0029L15.5499 18.3206V16.4428L14.8033 15.2703Z" fill="white"/>
<path d="M19.5428 2.37344C18.5657 2.00036 17.4712 2.49002 17.0981 3.46713C16.7218 4.45268 17.2247 5.54261 18.1918 5.91185C19.1601 6.2816 20.2607 5.80253 20.6365 4.81816C21.0096 3.84105 20.52 2.74652 19.5428 2.37344Z" fill="white"/>
</g>
<defs>
<clipPath id="clip0_96_140">
<rect width="24" height="24" fill="white"/>
</clipPath>
</defs>
</svg>
