<svg width="24" height="24" viewBox="0 0 24 24" fill="none" xmlns="http://www.w3.org/2000/svg">
<g clip-path="url(#clip0_96_29)">
<path d="M9.709 19.8113C5.82189 18.9781 3.00002 15.4828 3.00002 11.5C3.00002 6.81302 6.81302 3.00002 11.5 3.00002C15.4829 3.00002 18.9781 5.82189 19.8109 9.70923C19.8665 9.96863 20.0228 10.1953 20.2455 10.3395C20.4682 10.4836 20.739 10.5334 20.9984 10.4778C21.2578 10.4223 21.4845 10.2659 21.6287 10.0432C21.7728 9.82055 21.8226 9.54971 21.767 9.29031C20.7375 4.48661 16.4194 1 11.5 1C5.71047 1 1 5.71023 1 11.5C1 16.4194 4.48633 20.7373 9.29008 21.7668C9.41848 21.7943 9.55104 21.7963 9.6802 21.7726C9.80935 21.7488 9.93257 21.6999 10.0428 21.6286C10.1531 21.5572 10.2482 21.4649 10.3227 21.3568C10.3973 21.2487 10.4498 21.1269 10.4773 20.9985C10.5048 20.8701 10.5068 20.7376 10.483 20.6084C10.4593 20.4793 10.4104 20.356 10.339 20.2458C10.2677 20.1356 10.1753 20.0404 10.0672 19.9659C9.95913 19.8913 9.8374 19.8388 9.709 19.8113Z" fill="white"/>
<path d="M10.5 5.49996V10.5H7.50002C7.23599 10.5018 6.98339 10.6079 6.79732 10.7953C6.61126 10.9826 6.50684 11.2359 6.50684 11.5C6.50684 11.764 6.61126 12.0173 6.79732 12.2047C6.98339 12.392 7.23599 12.4982 7.50002 12.5H11.5C11.7652 12.5 12.0196 12.3946 12.2071 12.2071C12.3947 12.0195 12.5 11.7652 12.5 11.5V5.49996C12.4982 5.23593 12.3921 4.98332 12.2047 4.79726C12.0174 4.6112 11.7641 4.50677 11.5 4.50677C11.236 4.50677 10.9827 4.6112 10.7953 4.79726C10.608 4.98332 10.5018 5.23593 10.5 5.49996Z" fill="white"/>
<path d="M17.5 11C13.916 11 11 13.9156 11 17.5C11 21.0843 13.916 24 17.5 24C21.0839 24 24 21.0844 24 17.5C24 13.9156 21.084 11 17.5 11ZM17.5 22C16.61 22 15.7399 21.736 14.9999 21.2416C14.2599 20.7471 13.6831 20.0443 13.3425 19.222C13.0019 18.3998 12.9128 17.495 13.0864 16.6221C13.2601 15.7491 13.6887 14.9473 14.318 14.318C14.9473 13.6887 15.7491 13.2601 16.6221 13.0864C17.495 12.9128 18.3998 13.0019 19.222 13.3425C20.0443 13.6831 20.7471 14.2599 21.2416 14.9999C21.736 15.7399 22 16.61 22 17.5C21.9986 18.693 21.5241 19.8368 20.6805 20.6805C19.8368 21.5241 18.693 21.9986 17.5 22Z" fill="white"/>
<path d="M17.5 14C17.2348 14 16.9805 14.1054 16.7929 14.2929C16.6054 14.4804 16.5 14.7348 16.5 15V17.5C16.4991 17.6319 16.5243 17.7626 16.5742 17.8848C16.624 18.0069 16.6975 18.1179 16.7905 18.2115C16.8834 18.3051 16.994 18.3794 17.1158 18.4301C17.2375 18.4808 17.3681 18.5068 17.5 18.5068C17.6319 18.5068 17.7625 18.4808 17.8843 18.4301C18.0061 18.3794 18.1166 18.3051 18.2096 18.2115C18.3025 18.1179 18.376 18.0069 18.4259 17.8848C18.4757 17.7626 18.5009 17.6319 18.5 17.5V15C18.5 14.7348 18.3947 14.4804 18.2071 14.2929C18.0196 14.1054 17.7652 14 17.5 14Z" fill="white"/>
<path d="M17.5 21C18.0523 21 18.5 20.5523 18.5 20C18.5 19.4478 18.0523 19.0001 17.5 19.0001C16.9477 19.0001 16.5 19.4478 16.5 20C16.5 20.5523 16.9477 21 17.5 21Z" fill="white"/>
</g>
<defs>
<clipPath id="clip0_96_29">
<rect width="24" height="24" fill="white"/>
</clipPath>
</defs>
</svg>
