<svg width="24" height="24" viewBox="0 0 24 24" fill="none" xmlns="http://www.w3.org/2000/svg">
<path d="M12 0C9.62663 0 7.30655 0.703788 5.33316 2.02236C3.35977 3.34094 1.8217 5.21508 0.913451 7.4078C0.00519941 9.60051 -0.232441 12.0133 0.230582 14.3411C0.693605 16.6689 1.83649 18.807 3.51472 20.4853C5.19295 22.1635 7.33115 23.3064 9.65892 23.7694C11.9867 24.2324 14.3995 23.9948 16.5922 23.0865C18.7849 22.1783 20.6591 20.6402 21.9776 18.6668C23.2962 16.6934 24 14.3734 24 12C24 10.4241 23.6896 8.8637 23.0866 7.4078C22.4835 5.95189 21.5996 4.62902 20.4853 3.51472C19.371 2.40042 18.0481 1.5165 16.5922 0.913445C15.1363 0.310389 13.5759 0 12 0ZM12 21.6C10.1013 21.6 8.24524 21.037 6.66653 19.9821C5.08782 18.9272 3.85736 17.4279 3.13076 15.6738C2.40416 13.9196 2.21405 11.9893 2.58447 10.1271C2.95488 8.26491 3.8692 6.55436 5.21178 5.21177C6.55436 3.86919 8.26492 2.95488 10.1271 2.58446C11.9894 2.21404 13.9196 2.40415 15.6738 3.13076C17.4279 3.85736 18.9272 5.08781 19.9821 6.66652C21.037 8.24524 21.6 10.1013 21.6 12C21.6 14.5461 20.5886 16.9879 18.7882 18.7882C16.9879 20.5886 14.5461 21.6 12 21.6Z" fill="white"/>
<path d="M15.24 7.66799L10.704 13.668L8.74803 11.136C8.5523 10.8846 8.26471 10.7212 7.94852 10.6818C7.63234 10.6424 7.31346 10.7303 7.06203 10.926C6.81061 11.1217 6.64723 11.4093 6.60785 11.7255C6.56847 12.0417 6.6563 12.3606 6.85203 12.612L9.76803 16.344C9.88104 16.487 10.0251 16.6024 10.1894 16.6814C10.3537 16.7604 10.5338 16.801 10.716 16.8C10.8993 16.7995 11.08 16.7571 11.2443 16.676C11.4087 16.5949 11.5522 16.4772 11.664 16.332L17.148 9.13199C17.3422 8.87738 17.4272 8.55608 17.3845 8.23877C17.3417 7.92146 17.1746 7.63413 16.92 7.43999C16.6654 7.24585 16.3441 7.16081 16.0268 7.20357C15.7095 7.24633 15.4222 7.41338 15.228 7.66799H15.24Z" fill="white"/>
</svg>
