<svg width="24" height="24" viewBox="0 0 24 24" fill="none" xmlns="http://www.w3.org/2000/svg">
<g clip-path="url(#clip0_96_178)">
<path d="M1.6 20H8.4V20.7304C8.4 21.1496 8.2 21.55 7.8648 21.8016L7.1732 22.32C6.9392 22.4952 6.7996 22.7744 6.7996 23.0668C6.7996 23.5812 7.2184 24 7.7328 24H16.2664C16.7808 24 17.1996 23.5812 17.1996 23.0668C17.1996 22.7744 17.06 22.4952 16.826 22.32L16.1344 21.8016C15.7992 21.55 15.5992 21.1496 15.5992 20.7304V20H22.3992C23.2816 20 23.9992 19.2824 23.9992 18.4V1.6C24 0.7176 23.2824 0 22.4 0H1.6C0.7176 0 0 0.7176 0 1.6V18.4C0 19.2824 0.7176 20 1.6 20ZM15.6556 22.4416L16.3472 22.96C16.3804 22.9848 16.4004 23.0252 16.4004 23.0672C16.4004 23.1408 16.3408 23.2004 16.2672 23.2004H7.7336C7.66 23.2004 7.6004 23.1408 7.6004 23.0672C7.6004 23.0256 7.6204 22.9852 7.6536 22.96L8.3452 22.4416C8.8808 22.04 9.2008 21.4 9.2008 20.7308V20.0004H14.8008V20.7308C14.8008 21.4004 15.1208 22.04 15.6564 22.4416H15.6556ZM22.4 19.2H1.6C1.1588 19.2 0.8 18.8412 0.8 18.4V16.8H23.2V18.4C23.2 18.8412 22.8412 19.2 22.4 19.2ZM1.6 0.8H22.4C22.8412 0.8 23.2 1.1588 23.2 1.6V16H0.8V1.6C0.8 1.1588 1.1588 0.8 1.6 0.8Z" fill="white"/>
<path d="M2.39998 15.2H21.6C22.0412 15.2 22.4 14.8412 22.4 14.4V2.39998C22.4 1.95878 22.0412 1.59998 21.6 1.59998H2.39998C1.95878 1.59998 1.59998 1.95878 1.59998 2.39998V14.4C1.59998 14.8412 1.95878 15.2 2.39998 15.2ZM2.39998 2.39998H21.6V14.4L2.39998 14.4008V2.39998Z" fill="white"/>
<path d="M7.19998 4.79999C5.21478 4.79999 3.59998 6.41479 3.59998 8.39999C3.59998 10.3852 5.21478 12 7.19998 12C9.18518 12 10.8 10.3852 10.8 8.39999C10.8 6.41479 9.18518 4.79999 7.19998 4.79999ZM9.96798 7.99999H7.41398L5.99678 5.87559C6.36198 5.70079 6.76878 5.59999 7.19998 5.59999C8.60758 5.59999 9.77278 6.64559 9.96798 7.99999ZM4.39998 8.39999C4.39998 7.57439 4.76158 6.83319 5.33198 6.32039L6.79998 8.52119V11.168C5.44558 10.9728 4.39998 9.80759 4.39998 8.39999ZM7.59998 11.168V8.79999H9.96798C9.79158 10.0236 8.82358 10.9916 7.59998 11.168Z" fill="white"/>
<path d="M13.2 8H12.4C11.9588 8 11.6 8.3588 11.6 8.8V11.2C11.6 11.6412 11.9588 12 12.4 12H13.2C13.6412 12 14 11.6412 14 11.2V8.8C14 8.3588 13.6412 8 13.2 8ZM12.4 11.2V8.8H13.2L13.2008 11.2H12.4Z" fill="white"/>
<path d="M16.4 4.79999H15.6C15.1588 4.79999 14.8 5.15879 14.8 5.59999V11.2C14.8 11.6412 15.1588 12 15.6 12H16.4C16.8412 12 17.2 11.6412 17.2 11.2V5.59999C17.2 5.15879 16.8412 4.79999 16.4 4.79999ZM15.6 11.2V5.59999H16.4L16.4008 11.2H15.6Z" fill="white"/>
<path d="M19.6 6.79999H18.8C18.3588 6.79999 18 7.15879 18 7.59999V11.2C18 11.6412 18.3588 12 18.8 12H19.6C20.0412 12 20.4 11.6412 20.4 11.2V7.59999C20.4 7.15879 20.0412 6.79999 19.6 6.79999ZM18.8 11.2V7.59999H19.6L19.6008 11.2H18.8Z" fill="white"/>
</g>
<defs>
<clipPath id="clip0_96_178">
<rect width="24" height="24" fill="white"/>
</clipPath>
</defs>
</svg>
