<svg width="16" height="16" viewBox="0 0 16 16" fill="none" xmlns="http://www.w3.org/2000/svg">
<g clip-path="url(#clip0_54_143)">
<path d="M14.9333 15.4667V5.33336C14.9333 5.21097 14.85 5.10433 14.7312 5.07464L9.59999 3.7917V2.40003C9.59999 2.2792 9.51874 2.1736 9.40207 2.14235L1.40207 0.00901283C1.32213 -0.0123413 1.23658 0.00471596 1.17095 0.0552368C1.1052 0.105627 1.06666 0.183752 1.06666 0.266695V15.4667H-9.53674e-06V16H16V15.4667H14.9333ZM1.59999 0.61331L9.06666 2.6042V15.4667H7.73332V12.5334C7.73332 12.3861 7.61392 12.2667 7.46666 12.2667H3.19999C3.05273 12.2667 2.93332 12.3861 2.93332 12.5334V15.4667H1.59999V0.61331ZM3.46666 12.8H5.06666V15.4667H3.46666V12.8ZM5.59999 15.4667V12.8H7.19999V15.4667H5.59999ZM11.2 15.4667V13.3334H12.8V15.4667H11.2ZM13.3333 15.4667V13.0667C13.3333 12.9194 13.2139 12.8 13.0667 12.8H10.9333C10.7861 12.8 10.6667 12.9194 10.6667 13.0667V15.4667H9.59999V4.34157L14.4 5.54157V15.4667H13.3333Z" fill="#787878"/>
<path d="M3.46667 11.2001H4.53333C4.6806 11.2001 4.8 11.0807 4.8 10.9334V9.86676C4.8 9.7195 4.6806 9.6001 4.53333 9.6001H3.46667C3.3194 9.6001 3.2 9.7195 3.2 9.86676V10.9334C3.2 11.0807 3.3194 11.2001 3.46667 11.2001ZM3.73333 10.1334H4.26667V10.6668H3.73333V10.1334Z" fill="#787878"/>
<path d="M6.13333 11.2001H7.2C7.34727 11.2001 7.46667 11.0807 7.46667 10.9334V9.86676C7.46667 9.7195 7.34727 9.6001 7.2 9.6001H6.13333C5.98607 9.6001 5.86667 9.7195 5.86667 9.86676V10.9334C5.86667 11.0807 5.98607 11.2001 6.13333 11.2001ZM6.4 10.1334H6.93333V10.6668H6.4V10.1334Z" fill="#787878"/>
<path d="M11.4667 10.1333H10.4C10.2527 10.1333 10.1333 10.2527 10.1333 10.4V11.4666C10.1333 11.6139 10.2527 11.7333 10.4 11.7333H11.4667C11.6139 11.7333 11.7333 11.6139 11.7333 11.4666V10.4C11.7333 10.2527 11.6139 10.1333 11.4667 10.1333ZM11.2 11.2H10.6667V10.6666H11.2V11.2Z" fill="#787878"/>
<path d="M13.6 10.1333H12.5333C12.3861 10.1333 12.2667 10.2527 12.2667 10.4V11.4666C12.2667 11.6139 12.3861 11.7333 12.5333 11.7333H13.6C13.7473 11.7333 13.8667 11.6139 13.8667 11.4666V10.4C13.8667 10.2527 13.7473 10.1333 13.6 10.1333ZM13.3333 11.2H12.8V10.6666H13.3333V11.2Z" fill="#787878"/>
<path d="M11.4667 8H10.4C10.2527 8 10.1333 8.1194 10.1333 8.26667V9.33333C10.1333 9.4806 10.2527 9.6 10.4 9.6H11.4667C11.6139 9.6 11.7333 9.4806 11.7333 9.33333V8.26667C11.7333 8.1194 11.6139 8 11.4667 8ZM11.2 9.06667H10.6667V8.53333H11.2V9.06667Z" fill="#787878"/>
<path d="M13.6 8H12.5333C12.3861 8 12.2667 8.1194 12.2667 8.26667V9.33333C12.2667 9.4806 12.3861 9.6 12.5333 9.6H13.6C13.7473 9.6 13.8667 9.4806 13.8667 9.33333V8.26667C13.8667 8.1194 13.7473 8 13.6 8ZM13.3333 9.06667H12.8V8.53333H13.3333V9.06667Z" fill="#787878"/>
<path d="M11.4667 5.8667H10.4C10.2527 5.8667 10.1333 5.9861 10.1333 6.13337V7.20003C10.1333 7.3473 10.2527 7.4667 10.4 7.4667H11.4667C11.6139 7.4667 11.7333 7.3473 11.7333 7.20003V6.13337C11.7333 5.9861 11.6139 5.8667 11.4667 5.8667ZM11.2 6.93337H10.6667V6.40003H11.2V6.93337Z" fill="#787878"/>
<path d="M13.6 5.8667H12.5333C12.3861 5.8667 12.2667 5.9861 12.2667 6.13337V7.20003C12.2667 7.3473 12.3861 7.4667 12.5333 7.4667H13.6C13.7473 7.4667 13.8667 7.3473 13.8667 7.20003V6.13337C13.8667 5.9861 13.7473 5.8667 13.6 5.8667ZM13.3333 6.93337H12.8V6.40003H13.3333V6.93337Z" fill="#787878"/>
<path d="M3.46667 9.06655H4.53333C4.6806 9.06655 4.8 8.94715 4.8 8.79989V7.73322C4.8 7.58595 4.6806 7.46655 4.53333 7.46655H3.46667C3.3194 7.46655 3.2 7.58595 3.2 7.73322V8.79989C3.2 8.94715 3.3194 9.06655 3.46667 9.06655ZM3.73333 7.99989H4.26667V8.53322H3.73333V7.99989Z" fill="#787878"/>
<path d="M6.13333 9.06655H7.2C7.34727 9.06655 7.46667 8.94715 7.46667 8.79989V7.73322C7.46667 7.58595 7.34727 7.46655 7.2 7.46655H6.13333C5.98607 7.46655 5.86667 7.58595 5.86667 7.73322V8.79989C5.86667 8.94715 5.98607 9.06655 6.13333 9.06655ZM6.4 7.99989H6.93333V8.53322H6.4V7.99989Z" fill="#787878"/>
<path d="M3.46667 6.93325H4.53333C4.6806 6.93325 4.8 6.81385 4.8 6.66659V5.59992C4.8 5.45265 4.6806 5.33325 4.53333 5.33325H3.46667C3.3194 5.33325 3.2 5.45265 3.2 5.59992V6.66659C3.2 6.81385 3.3194 6.93325 3.46667 6.93325ZM3.73333 5.86659H4.26667V6.39992H3.73333V5.86659Z" fill="#787878"/>
<path d="M6.13333 6.93325H7.2C7.34727 6.93325 7.46667 6.81385 7.46667 6.66659V5.59992C7.46667 5.45265 7.34727 5.33325 7.2 5.33325H6.13333C5.98607 5.33325 5.86667 5.45265 5.86667 5.59992V6.66659C5.86667 6.81385 5.98607 6.93325 6.13333 6.93325ZM6.4 5.86659H6.93333V6.39992H6.4V5.86659Z" fill="#787878"/>
<path d="M3.46667 4.79995H4.53333C4.6806 4.79995 4.8 4.68055 4.8 4.53328V3.46662C4.8 3.31935 4.6806 3.19995 4.53333 3.19995H3.46667C3.3194 3.19995 3.2 3.31935 3.2 3.46662V4.53328C3.2 4.68055 3.3194 4.79995 3.46667 4.79995ZM3.73333 3.73328H4.26667V4.26662H3.73333V3.73328Z" fill="#787878"/>
<path d="M6.13333 4.79995H7.2C7.34727 4.79995 7.46667 4.68055 7.46667 4.53328V3.46662C7.46667 3.31935 7.34727 3.19995 7.2 3.19995H6.13333C5.98607 3.19995 5.86667 3.31935 5.86667 3.46662V4.53328C5.86667 4.68055 5.98607 4.79995 6.13333 4.79995ZM6.4 3.73328H6.93333V4.26662H6.4V3.73328Z" fill="#787878"/>
</g>
<defs>
<clipPath id="clip0_54_143">
<rect width="16" height="16" fill="white"/>
</clipPath>
</defs>
</svg>
