<svg width="24" height="24" viewBox="0 0 24 24" fill="none" xmlns="http://www.w3.org/2000/svg">
<g clip-path="url(#clip0_96_152)">
<path d="M22.4 23.2V8.00004C22.4 7.81645 22.275 7.65649 22.0969 7.61196L14.4 5.68754V3.60004C14.4 3.41879 14.2781 3.26039 14.1031 3.21352L2.10313 0.0135192C1.9832 -0.018512 1.85488 0.00707394 1.75645 0.0828552C1.65781 0.158441 1.6 0.275629 1.6 0.400043V23.2H0V24H24V23.2H22.4ZM2.4 0.919965L13.6 3.90629V23.2H11.6V18.8C11.6 18.5791 11.4209 18.4 11.2 18.4H4.8C4.5791 18.4 4.4 18.5791 4.4 18.8V23.2H2.4V0.919965ZM5.2 19.2H7.6V23.2H5.2V19.2ZM8.4 23.2V19.2H10.8V23.2H8.4ZM16.8 23.2V20H19.2V23.2H16.8ZM20 23.2V19.6C20 19.3791 19.8209 19.2 19.6 19.2H16.4C16.1791 19.2 16 19.3791 16 19.6V23.2H14.4V6.51235L21.6 8.31235V23.2H20Z" fill="white"/>
<path d="M5.20005 16.8H6.80005C7.02095 16.8 7.20005 16.6209 7.20005 16.4V14.8C7.20005 14.5791 7.02095 14.4 6.80005 14.4H5.20005C4.97915 14.4 4.80005 14.5791 4.80005 14.8V16.4C4.80005 16.6209 4.97915 16.8 5.20005 16.8ZM5.60005 15.2H6.40005V16H5.60005V15.2Z" fill="white"/>
<path d="M9.20005 16.8H10.8C11.0209 16.8 11.2 16.6209 11.2 16.4V14.8C11.2 14.5791 11.0209 14.4 10.8 14.4H9.20005C8.97915 14.4 8.80005 14.5791 8.80005 14.8V16.4C8.80005 16.6209 8.97915 16.8 9.20005 16.8ZM9.60005 15.2H10.4V16H9.60005V15.2Z" fill="white"/>
<path d="M17.2 15.2H15.6C15.3791 15.2 15.2 15.3791 15.2 15.6V17.2C15.2 17.4209 15.3791 17.6 15.6 17.6H17.2C17.4208 17.6 17.6 17.4209 17.6 17.2V15.6C17.6 15.3791 17.4208 15.2 17.2 15.2ZM16.8 16.8H16V16H16.8V16.8Z" fill="white"/>
<path d="M20.4 15.2H18.8C18.5791 15.2 18.4 15.3791 18.4 15.6V17.2C18.4 17.4209 18.5791 17.6 18.8 17.6H20.4C20.6209 17.6 20.8 17.4209 20.8 17.2V15.6C20.8 15.3791 20.6209 15.2 20.4 15.2ZM20 16.8H19.2V16H20V16.8Z" fill="white"/>
<path d="M17.2 12H15.6C15.3791 12 15.2 12.1791 15.2 12.4V14C15.2 14.2209 15.3791 14.4 15.6 14.4H17.2C17.4208 14.4 17.6 14.2209 17.6 14V12.4C17.6 12.1791 17.4208 12 17.2 12ZM16.8 13.6H16V12.8H16.8V13.6Z" fill="white"/>
<path d="M20.4 12H18.8C18.5791 12 18.4 12.1791 18.4 12.4V14C18.4 14.2209 18.5791 14.4 18.8 14.4H20.4C20.6209 14.4 20.8 14.2209 20.8 14V12.4C20.8 12.1791 20.6209 12 20.4 12ZM20 13.6H19.2V12.8H20V13.6Z" fill="white"/>
<path d="M17.2 8.79999H15.6C15.3791 8.79999 15.2 8.97909 15.2 9.19999V10.8C15.2 11.0209 15.3791 11.2 15.6 11.2H17.2C17.4208 11.2 17.6 11.0209 17.6 10.8V9.19999C17.6 8.97909 17.4208 8.79999 17.2 8.79999ZM16.8 10.4H16V9.59999H16.8V10.4Z" fill="white"/>
<path d="M20.4 8.79999H18.8C18.5791 8.79999 18.4 8.97909 18.4 9.19999V10.8C18.4 11.0209 18.5791 11.2 18.8 11.2H20.4C20.6209 11.2 20.8 11.0209 20.8 10.8V9.19999C20.8 8.97909 20.6209 8.79999 20.4 8.79999ZM20 10.4H19.2V9.59999H20V10.4Z" fill="white"/>
<path d="M5.20005 13.6H6.80005C7.02095 13.6 7.20005 13.4209 7.20005 13.2V11.6C7.20005 11.3791 7.02095 11.2 6.80005 11.2H5.20005C4.97915 11.2 4.80005 11.3791 4.80005 11.6V13.2C4.80005 13.4209 4.97915 13.6 5.20005 13.6ZM5.60005 12H6.40005V12.8H5.60005V12Z" fill="white"/>
<path d="M9.20005 13.6H10.8C11.0209 13.6 11.2 13.4209 11.2 13.2V11.6C11.2 11.3791 11.0209 11.2 10.8 11.2H9.20005C8.97915 11.2 8.80005 11.3791 8.80005 11.6V13.2C8.80005 13.4209 8.97915 13.6 9.20005 13.6ZM9.60005 12H10.4V12.8H9.60005V12Z" fill="white"/>
<path d="M5.20005 10.4H6.80005C7.02095 10.4 7.20005 10.2209 7.20005 10V8.4C7.20005 8.1791 7.02095 8 6.80005 8H5.20005C4.97915 8 4.80005 8.1791 4.80005 8.4V10C4.80005 10.2209 4.97915 10.4 5.20005 10.4ZM5.60005 8.8H6.40005V9.6H5.60005V8.8Z" fill="white"/>
<path d="M9.20005 10.4H10.8C11.0209 10.4 11.2 10.2209 11.2 10V8.4C11.2 8.1791 11.0209 8 10.8 8H9.20005C8.97915 8 8.80005 8.1791 8.80005 8.4V10C8.80005 10.2209 8.97915 10.4 9.20005 10.4ZM9.60005 8.8H10.4V9.6H9.60005V8.8Z" fill="white"/>
<path d="M5.20005 7.19999H6.80005C7.02095 7.19999 7.20005 7.02089 7.20005 6.79999V5.19999C7.20005 4.97909 7.02095 4.79999 6.80005 4.79999H5.20005C4.97915 4.79999 4.80005 4.97909 4.80005 5.19999V6.79999C4.80005 7.02089 4.97915 7.19999 5.20005 7.19999ZM5.60005 5.59999H6.40005V6.39999H5.60005V5.59999Z" fill="white"/>
<path d="M9.20005 7.19999H10.8C11.0209 7.19999 11.2 7.02089 11.2 6.79999V5.19999C11.2 4.97909 11.0209 4.79999 10.8 4.79999H9.20005C8.97915 4.79999 8.80005 4.97909 8.80005 5.19999V6.79999C8.80005 7.02089 8.97915 7.19999 9.20005 7.19999ZM9.60005 5.59999H10.4V6.39999H9.60005V5.59999Z" fill="white"/>
</g>
<defs>
<clipPath id="clip0_96_152">
<rect width="24" height="24" fill="white"/>
</clipPath>
</defs>
</svg>
