<svg width="16" height="16" viewBox="0 0 16 16" fill="none" xmlns="http://www.w3.org/2000/svg">
<g clip-path="url(#clip0_54_162)">
<path d="M14 9.00003C14 9.63117 13.4883 10.1429 12.8571 10.1429C12.226 10.1429 11.7143 9.63117 11.7143 9.00003C11.7143 8.3689 12.226 7.85718 12.8571 7.85718C13.4883 7.85718 14 8.3689 14 9.00003Z" fill="#787878"/>
<path d="M4.28571 9.00003C4.28571 9.63117 3.774 10.1429 3.14286 10.1429C2.51172 10.1429 2 9.63117 2 9.00003C2 8.3689 2.51172 7.85718 3.14286 7.85718C3.774 7.85718 4.28571 8.3689 4.28571 9.00003Z" fill="#787878"/>
<path d="M9.14286 7.85721C9.14286 8.48835 8.63114 9.00007 8 9.00007C7.36886 9.00007 6.85714 8.48835 6.85714 7.85721C6.85714 7.22607 7.36886 6.71436 8 6.71436C8.63114 6.71436 9.14286 7.22607 9.14286 7.85721Z" fill="#787878"/>
<path d="M4.57937 15.5714C4.3895 15.326 4.28626 15.0246 4.28571 14.7143V11.8572C4.28696 11.5681 4.33705 11.2813 4.43372 11.0088C4.38462 11.0054 4.33593 11 4.28571 11H1.99999C1.59876 10.9989 1.20674 11.1198 0.875968 11.3468C0.328674 11.7192 0.00068896 12.338 -8.58307e-06 13V14.1429C0.000967981 14.7002 0.325605 15.2063 0.831744 15.4397C0.930795 15.4866 1.03529 15.5212 1.14285 15.5428V12.4286H1.71428V15.5714H4.57937Z" fill="#787878"/>
<path d="M4.86593 15.8572C4.86286 15.855 4.86035 15.8521 4.85714 15.8499V15.8572H4.86593Z" fill="#787878"/>
<path d="M10.9083 10.918C10.7552 10.632 10.5354 10.387 10.2677 10.2037C10.2412 10.184 10.2133 10.1662 10.1843 10.1503C9.87068 9.9586 9.51032 9.85718 9.14286 9.85718H6.85714C5.75251 9.85718 4.85714 10.7525 4.85714 11.8572V14.7143C4.85714 15.1877 5.24093 15.5715 5.71429 15.5715H6V11.5715H6.57143V15.5715H9.42857V11.5715H10V15.5715H10.2857C10.7591 15.5715 11.1429 15.1877 11.1429 14.7143V11.8572C11.143 11.5296 11.0624 11.2071 10.9083 10.918Z" fill="#787878"/>
<path d="M15.1249 11.3474C14.7939 11.1201 14.4015 10.9989 14 11H11.7143C11.6643 11 11.6157 11.0054 11.5665 11.0088C11.6631 11.2814 11.713 11.5681 11.7143 11.8572V14.7143C11.7137 15.0246 11.6105 15.326 11.4206 15.5714H14.2857V12.4286H14.8571V15.5428C14.963 15.5216 15.0658 15.4875 15.1634 15.4411C15.672 15.209 15.9987 14.7019 16 14.1429V13C15.9993 12.3383 15.6717 11.7199 15.1249 11.3474Z" fill="#787878"/>
<path d="M8 3.85719C6.83161 3.85482 5.74275 4.44884 5.11231 5.43266C4.48186 6.41634 4.39704 7.65378 4.88714 8.71433H6.51772C6.09919 7.99391 6.25921 7.07705 6.8969 6.54092C7.5346 6.00493 8.4654 6.00493 9.1031 6.54092C9.74079 7.07705 9.90081 7.99391 9.48228 8.71433H11.1143C11.6045 7.6535 11.5195 6.41578 10.8887 5.43196C10.258 4.44815 9.16867 3.8544 8 3.85719Z" fill="#787878"/>
<path d="M14.8571 6.14282H13.3143L13.2588 5.92826C13.1327 5.43733 12.9362 4.96718 12.6761 4.53219L12.5617 4.34106L13.6571 3.24369C13.7105 3.19053 13.7405 3.11827 13.7405 3.04293C13.7405 2.9676 13.7105 2.89533 13.6571 2.84232L12.4438 1.62859C12.3318 1.52173 12.1557 1.52173 12.0437 1.62859L10.9463 2.72597L10.7552 2.61171C10.3196 2.35125 9.84891 2.15496 9.35742 2.02856L9.14286 1.97276V0.428537C9.14286 0.270752 9.01493 0.142822 8.85714 0.142822H7.14286C6.98507 0.142822 6.85714 0.270752 6.85714 0.428537V1.97137L6.64258 2.02689C6.15165 2.15315 5.68136 2.3493 5.24623 2.60934L5.05511 2.72374L3.95801 1.62859C3.84584 1.52089 3.66881 1.52089 3.55664 1.62859L2.34291 2.8419C2.28948 2.89519 2.25935 2.96746 2.25935 3.04279C2.25935 3.11827 2.28948 3.19053 2.34291 3.24369L3.44029 4.34106L3.32603 4.53219C3.06571 4.96718 2.86942 5.43733 2.74316 5.92826L2.68708 6.14282H1.14286C0.985073 6.14282 0.857143 6.27075 0.857143 6.42854V8.14282C0.857143 8.30061 0.985073 8.42854 1.14286 8.42854H1.52944C1.69908 7.94584 2.07603 7.56442 2.55678 7.3892C3.03753 7.21383 3.57143 7.26308 4.012 7.5234C4.0074 7.4443 4 7.3659 4 7.28568C4 5.07656 5.79088 3.28568 8 3.28568C10.2091 3.28568 12 5.07656 12 7.28568C12 7.3659 11.9926 7.4443 11.988 7.5234C12.4286 7.26308 12.9625 7.21383 13.4432 7.3892C13.924 7.56442 14.3009 7.94584 14.4706 8.42854H14.8571C15.0149 8.42854 15.1429 8.30061 15.1429 8.14282V6.42854C15.1429 6.27075 15.0149 6.14282 14.8571 6.14282Z" fill="#787878"/>
</g>
<defs>
<clipPath id="clip0_54_162">
<rect width="16" height="16" fill="white"/>
</clipPath>
</defs>
</svg>
