<svg width="13" height="12" viewBox="0 0 13 12" fill="none" xmlns="http://www.w3.org/2000/svg">
<path fill-rule="evenodd" clip-rule="evenodd" d="M6.34177 0.571429C3.34365 0.571429 0.913201 3.00188 0.913201 6C0.913201 8.99811 3.34365 11.4286 6.34177 11.4286C9.33989 11.4286 11.7703 8.99811 11.7703 6C11.7703 3.00188 9.33989 0.571429 6.34177 0.571429ZM0.341772 6C0.341772 2.68629 3.02806 0 6.34177 0C9.65549 0 12.3418 2.68629 12.3418 6C12.3418 9.31371 9.65549 12 6.34177 12C3.02806 12 0.341772 9.31371 0.341772 6Z" fill="#787878"/>
<path fill-rule="evenodd" clip-rule="evenodd" d="M6.05606 5.71429V2H6.62749V6C6.62749 6.15777 6.49954 6.28571 6.34177 6.28571H3.48463V5.71429H6.05606Z" fill="#787878"/>
</svg>
