<svg width="24" height="24" viewBox="0 0 24 24" fill="none" xmlns="http://www.w3.org/2000/svg">
<path d="M20.25 3H19.125V4.5H20.25C20.3495 4.5 20.4448 4.53951 20.5152 4.60984C20.5855 4.68016 20.625 4.77554 20.625 4.875V16.125C20.625 16.2245 20.5855 16.3198 20.5152 16.3902C20.4448 16.4605 20.3495 16.5 20.25 16.5H18.375V1.875C18.375 1.77554 18.3355 1.68016 18.2652 1.60984C18.1948 1.53951 18.0995 1.5 18 1.5H6C5.90054 1.5 5.80516 1.53951 5.73484 1.60984C5.66451 1.68016 5.625 1.77554 5.625 1.875V16.5H3.75C3.65054 16.5 3.55516 16.4605 3.48484 16.3902C3.41451 16.3198 3.375 16.2245 3.375 16.125V4.875C3.375 4.77554 3.41451 4.68016 3.48484 4.60984C3.55516 4.53951 3.65054 4.5 3.75 4.5H4.875V3H3.75C3.25272 3 2.77581 3.19754 2.42417 3.54917C2.07254 3.90081 1.875 4.37772 1.875 4.875V17.625C1.875 18.1223 2.07254 18.5992 2.42417 18.9508C2.77581 19.3025 3.25272 19.5 3.75 19.5H20.25C20.7473 19.5 21.2242 19.3025 21.5758 18.9508C21.9275 18.5992 22.125 18.1223 22.125 17.625V4.875C22.125 4.37772 21.9275 3.90081 21.5758 3.54917C21.2242 3.19754 20.7473 3 20.25 3ZM6.375 2.25H17.625V16.5H6.375V2.25ZM13.5 18.375H10.5V17.625H13.5V18.375ZM14.8237 21.75H15.75V22.5H8.25V21.75H9.17625C9.47011 21.2925 9.67495 20.7835 9.78 20.25H14.22C14.325 20.7835 14.5299 21.2925 14.8237 21.75ZM10.5 5.25C10.5 4.95333 10.588 4.66332 10.7528 4.41664C10.9176 4.16997 11.1519 3.97771 11.426 3.86418C11.7001 3.75065 12.0017 3.72094 12.2926 3.77882C12.5836 3.8367 12.8509 3.97956 13.0607 4.18934C13.2704 4.39912 13.4133 4.66639 13.4712 4.95736C13.5291 5.24834 13.4994 5.54994 13.3858 5.82403C13.2723 6.09811 13.08 6.33238 12.8334 6.4972C12.5867 6.66203 12.2967 6.75 12 6.75C11.6022 6.75 11.2206 6.59196 10.9393 6.31066C10.658 6.02936 10.5 5.64782 10.5 5.25ZM10.5 9.75H9.75V9.375C9.75 8.77826 9.98705 8.20597 10.409 7.78401C10.831 7.36205 11.4033 7.125 12 7.125C12.5967 7.125 13.169 7.36205 13.591 7.78401C14.0129 8.20597 14.25 8.77826 14.25 9.375V9.75H13.5V9.375C13.5 8.97718 13.342 8.59564 13.0607 8.31434C12.7794 8.03304 12.3978 7.875 12 7.875C11.6022 7.875 11.2206 8.03304 10.9393 8.31434C10.658 8.59564 10.5 8.97718 10.5 9.375V9.75ZM7.875 11.25H16.125V12H7.875V11.25ZM7.875 13.5H16.125V14.25H7.875V13.5Z" fill="white"/>
</svg>
