<svg width="36" height="36" viewBox="0 0 36 36" fill="none" xmlns="http://www.w3.org/2000/svg">
<path d="M18 3C15.0333 3 12.1332 3.87973 9.66645 5.52796C7.19972 7.17618 5.27713 9.51886 4.14181 12.2597C3.0065 15.0006 2.70945 18.0166 3.28823 20.9264C3.86701 23.8361 5.29562 26.5088 7.3934 28.6066C9.49119 30.7044 12.1639 32.133 15.0737 32.7118C17.9834 33.2906 20.9994 32.9935 23.7403 31.8582C26.4812 30.7229 28.8238 28.8003 30.472 26.3336C32.1203 23.8668 33 20.9667 33 18C33 16.0302 32.612 14.0796 31.8582 12.2597C31.1044 10.4399 29.9995 8.78628 28.6066 7.3934C27.2137 6.00052 25.5601 4.89563 23.7403 4.14181C21.9204 3.38799 19.9698 3 18 3ZM18 30C15.6266 30 13.3066 29.2962 11.3332 27.9776C9.35977 26.6591 7.8217 24.7849 6.91345 22.5922C6.0052 20.3995 5.76756 17.9867 6.23058 15.6589C6.69361 13.3311 7.83649 11.1929 9.51473 9.51472C11.193 7.83649 13.3312 6.6936 15.6589 6.23058C17.9867 5.76755 20.3995 6.00519 22.5922 6.91345C24.7849 7.8217 26.6591 9.35977 27.9776 11.3332C29.2962 13.3065 30 15.6266 30 18C30 21.1826 28.7357 24.2348 26.4853 26.4853C24.2349 28.7357 21.1826 30 18 30Z" fill="white"/>
<path d="M22.05 12.585L16.38 20.085L13.935 16.92C13.6904 16.6057 13.3309 16.4015 12.9357 16.3523C12.5404 16.3031 12.1418 16.4129 11.8275 16.6575C11.5133 16.9022 11.309 17.2617 11.2598 17.6569C11.2106 18.0521 11.3204 18.4507 11.565 18.765L15.21 23.43C15.3513 23.6088 15.5314 23.753 15.7368 23.8518C15.9421 23.9506 16.1672 24.0012 16.395 24C16.6241 23.9995 16.85 23.9465 17.0554 23.8451C17.2608 23.7436 17.4403 23.5965 17.58 23.415L24.435 14.415C24.6777 14.0968 24.784 13.6951 24.7306 13.2985C24.6771 12.9019 24.4683 12.5427 24.15 12.3C23.8318 12.0573 23.4302 11.951 23.0335 12.0045C22.6369 12.0579 22.2777 12.2668 22.035 12.585H22.05Z" fill="white"/>
</svg>
