<svg width="24" height="24" viewBox="0 0 24 24" fill="none" xmlns="http://www.w3.org/2000/svg">
<path d="M23.768 5.03201L18.968 0.232013C18.8932 0.157868 18.8046 0.099208 18.7071 0.0593963C18.6096 0.0195847 18.5053 -0.000595343 18.4 1.33714e-05H2.4C1.76348 1.33714e-05 1.15303 0.25287 0.702943 0.702957C0.252856 1.15304 0 1.76349 0 2.40001V21.6C0 22.2365 0.252856 22.847 0.702943 23.2971C1.15303 23.7471 1.76348 24 2.4 24H21.6C22.2365 24 22.847 23.7471 23.297 23.2971C23.7471 22.847 24 22.2365 24 21.6V5.60001C24.0006 5.49472 23.9804 5.39036 23.9406 5.29289C23.9008 5.19542 23.8421 5.10676 23.768 5.03201ZM15.2 1.60001V6.40001H8.79999V1.60001H15.2ZM5.6 22.4V16.8C5.6 16.5878 5.68428 16.3843 5.83431 16.2343C5.98434 16.0843 6.18782 16 6.4 16H17.6C17.8122 16 18.0156 16.0843 18.1657 16.2343C18.3157 16.3843 18.4 16.5878 18.4 16.8V22.4H5.6ZM22.4 21.6C22.4 21.8122 22.3157 22.0157 22.1657 22.1657C22.0156 22.3157 21.8122 22.4 21.6 22.4H20V16.8C20 16.1635 19.7471 15.553 19.297 15.1029C18.847 14.6529 18.2365 14.4 17.6 14.4H6.4C5.76348 14.4 5.15303 14.6529 4.70294 15.1029C4.25285 15.553 4 16.1635 4 16.8V22.4H2.4C2.18783 22.4 1.98434 22.3157 1.83431 22.1657C1.68428 22.0157 1.6 21.8122 1.6 21.6V2.40001C1.6 2.18784 1.68428 1.98436 1.83431 1.83433C1.98434 1.6843 2.18783 1.60001 2.4 1.60001H7.2V6.40001C7.2 6.82436 7.36857 7.23132 7.66862 7.53138C7.96868 7.83144 8.37565 8.00001 8.79999 8.00001H15.2C15.6243 8.00001 16.0313 7.83144 16.3314 7.53138C16.6314 7.23132 16.8 6.82436 16.8 6.40001V1.60001H18.072L22.4 5.92801V21.6Z" fill="white"/>
</svg>
