<svg width="24" height="24" viewBox="0 0 24 24" fill="none" xmlns="http://www.w3.org/2000/svg">
<path d="M17.1428 11.9999C17.1428 10.9828 16.8411 9.98844 16.276 9.1427C15.7109 8.29696 14.9077 7.63779 13.968 7.24853C13.0283 6.85928 11.9942 6.75744 10.9966 6.95588C9.99898 7.15431 9.08261 7.64412 8.36337 8.36337C7.64412 9.08261 7.15431 9.99898 6.95588 10.9966C6.75744 11.9942 6.85928 13.0283 7.24853 13.968C7.63779 14.9077 8.29696 15.7109 9.1427 16.276C9.98844 16.8411 10.9828 17.1428 11.9999 17.1428C13.3634 17.1412 14.6706 16.5989 15.6348 15.6348C16.5989 14.6706 17.1412 13.3634 17.1428 11.9999ZM8.04139 12.5713H8.57134C8.7229 12.5713 8.86824 12.5111 8.9754 12.404C9.08257 12.2968 9.14277 12.1515 9.14277 11.9999C9.14277 11.8484 9.08257 11.703 8.9754 11.5959C8.86824 11.4887 8.7229 11.4285 8.57134 11.4285H8.04139C8.16606 10.5745 8.56304 9.78356 9.1733 9.1733C9.78356 8.56304 10.5745 8.16606 11.4285 8.04139V8.57134C11.4285 8.7229 11.4887 8.86824 11.5959 8.9754C11.703 9.08257 11.8484 9.14277 11.9999 9.14277C12.1515 9.14277 12.2968 9.08257 12.404 8.9754C12.5111 8.86824 12.5713 8.7229 12.5713 8.57134V8.04139C13.4253 8.16606 14.2163 8.56304 14.8265 9.1733C15.4368 9.78356 15.8338 10.5745 15.9584 11.4285H15.4285C15.2769 11.4285 15.1316 11.4887 15.0244 11.5959C14.9173 11.703 14.8571 11.8484 14.8571 11.9999C14.8571 12.1515 14.9173 12.2968 15.0244 12.404C15.1316 12.5111 15.2769 12.5713 15.4285 12.5713H15.9584C15.8338 13.4253 15.4368 14.2163 14.8265 14.8265C14.2163 15.4368 13.4253 15.8338 12.5713 15.9584V15.4285C12.5713 15.2769 12.5111 15.1316 12.404 15.0244C12.2968 14.9173 12.1515 14.8571 11.9999 14.8571C11.8484 14.8571 11.703 14.9173 11.5959 15.0244C11.4887 15.1316 11.4285 15.2769 11.4285 15.4285V15.9584C10.5745 15.8338 9.78356 15.4368 9.1733 14.8265C8.56304 14.2163 8.16606 13.4253 8.04139 12.5713Z" fill="white"/>
<path d="M11.7443 12.5111C11.8516 12.5648 11.973 12.5833 12.0914 12.5641C12.2098 12.5449 12.3191 12.4889 12.404 12.4041L13.9278 10.8803C14.0335 10.7728 14.0925 10.6279 14.0918 10.4772C14.0912 10.3264 14.0311 10.182 13.9245 10.0754C13.8179 9.96885 13.6735 9.9087 13.5228 9.90809C13.372 9.90747 13.2271 9.96645 13.1197 10.0722L11.887 11.3048L10.7317 10.7271C10.5961 10.6593 10.4392 10.6481 10.2954 10.6961C10.1516 10.744 10.0328 10.847 9.965 10.9826C9.89722 11.1182 9.88606 11.2751 9.93398 11.4189C9.9819 11.5626 10.085 11.6815 10.2205 11.7493L11.7443 12.5111Z" fill="white"/>
<path d="M3.23805 12.5715C3.38961 12.5715 3.53495 12.5113 3.64212 12.4042C3.74928 12.297 3.80948 12.1516 3.80948 12.0001C3.80948 7.70009 7.1402 4.16366 11.3571 3.83476L10.834 4.35795C10.7802 4.41085 10.7375 4.47388 10.7082 4.54339C10.6789 4.6129 10.6636 4.68753 10.6633 4.76296C10.663 4.83839 10.6777 4.91314 10.7064 4.98289C10.7351 5.05264 10.7774 5.11601 10.8307 5.16935C10.884 5.22269 10.9474 5.26494 11.0172 5.29366C11.0869 5.32239 11.1617 5.33702 11.2371 5.33671C11.3125 5.3364 11.3871 5.32117 11.4567 5.29187C11.5262 5.26258 11.5892 5.21982 11.6421 5.16604L13.1659 3.64224C13.2731 3.53507 13.3333 3.38973 13.3333 3.23819C13.3333 3.08664 13.2731 2.9413 13.1659 2.83414L11.6421 1.31033C11.5346 1.20461 11.3898 1.14563 11.239 1.14624C11.0883 1.14686 10.9439 1.20701 10.8373 1.31361C10.7307 1.4202 10.6705 1.5646 10.6699 1.71534C10.6693 1.86609 10.7283 2.01097 10.834 2.11843L11.402 2.68647C6.53329 2.99585 2.66663 7.05457 2.66663 12.0001C2.66663 12.1516 2.72683 12.297 2.83399 12.4042C2.94116 12.5113 3.0865 12.5715 3.23805 12.5715Z" fill="white"/>
<path d="M20.7619 11.4286C20.6104 11.4286 20.465 11.4888 20.3579 11.596C20.2507 11.7031 20.1905 11.8485 20.1905 12C20.1905 16.3 16.8597 19.8364 12.6429 20.1653L13.166 19.6422C13.2717 19.5347 13.3307 19.3898 13.3301 19.2391C13.3295 19.0883 13.2693 18.9439 13.1627 18.8373C13.0561 18.7307 12.9117 18.6706 12.761 18.67C12.6103 18.6694 12.4654 18.7283 12.3579 18.8341L10.8341 20.3579C10.7269 20.465 10.6667 20.6104 10.6667 20.7619C10.6667 20.9135 10.7269 21.0588 10.8341 21.166L12.3579 22.6898C12.4654 22.7955 12.6103 22.8545 12.761 22.8539C12.9117 22.8532 13.0561 22.7931 13.1627 22.6865C13.2693 22.5799 13.3295 22.4355 13.3301 22.2848C13.3307 22.134 13.2717 21.9891 13.166 21.8817L12.598 21.3136C17.4667 21.0043 21.3333 16.9455 21.3333 12C21.3333 11.8485 21.2731 11.7031 21.166 11.596C21.0588 11.4888 20.9135 11.4286 20.7619 11.4286Z" fill="white"/>
<path d="M23.2382 2.47619C23.2265 2.0568 23.1247 1.64483 22.9398 1.26824C22.5308 0.450381 21.7572 0 20.762 0H17.7144C17.5628 0 17.4175 0.0602039 17.3103 0.167368C17.2031 0.274531 17.1429 0.419876 17.1429 0.571429C17.1429 1.54595 17.7507 2.15538 18.2862 2.46024C18.2862 2.46557 18.2858 2.4709 18.2858 2.47619C18.2858 3.13292 18.5467 3.76275 19.0111 4.22712C19.4754 4.6915 20.1053 4.95238 20.762 4.95238C21.4187 4.95238 22.0485 4.6915 22.5129 4.22712C22.9773 3.76275 23.2382 3.13292 23.2382 2.47619ZM20.762 1.14286C21.2322 1.14286 21.5729 1.28757 21.7972 1.584L21.7046 1.55314C21.6463 1.53372 21.5853 1.52381 21.5239 1.52381H18.9668C18.7741 1.439 18.6052 1.30819 18.4749 1.14286H20.762ZM20.762 3.80952C20.4415 3.8091 20.1319 3.69341 19.8896 3.48359C19.6473 3.27377 19.4886 2.98381 19.4425 2.66667H21.4312L22.0364 2.86843C21.9522 3.14074 21.7831 3.37898 21.5538 3.54831C21.3245 3.71763 21.047 3.80917 20.762 3.80952Z" fill="white"/>
<path d="M22.2857 4.95239H19.2381C18.7836 4.9529 18.3478 5.13367 18.0265 5.45505C17.7051 5.77643 17.5243 6.21218 17.5238 6.66668V10.0952C17.5238 10.2468 17.584 10.3921 17.6912 10.4993C17.7983 10.6065 17.9437 10.6667 18.0952 10.6667H23.4286C23.5801 10.6667 23.7255 10.6065 23.8326 10.4993C23.9398 10.3921 24 10.2468 24 10.0952V6.66668C23.9995 6.21218 23.8187 5.77643 23.4973 5.45505C23.176 5.13367 22.7402 4.9529 22.2857 4.95239ZM22.8571 9.52382H18.6667V6.66668C18.6668 6.51518 18.7271 6.36993 18.8342 6.2628C18.9413 6.15567 19.0866 6.09541 19.2381 6.09525H22.2857C22.4372 6.09541 22.5825 6.15567 22.6896 6.2628C22.7967 6.36993 22.857 6.51518 22.8571 6.66668V9.52382Z" fill="white"/>
<path d="M6.09524 15.8096C6.08353 15.3902 5.98175 14.9782 5.79681 14.6016C5.38791 13.7838 4.61429 13.3334 3.61905 13.3334H0.571429C0.419876 13.3334 0.274531 13.3936 0.167368 13.5007C0.0602039 13.6079 0 13.7533 0 13.9048C0 14.8793 0.607714 15.4888 1.14324 15.7936C1.14324 15.7989 1.14286 15.8043 1.14286 15.8096C1.14286 16.4663 1.40374 17.0961 1.86812 17.5605C2.33249 18.0249 2.96232 18.2858 3.61905 18.2858C4.27577 18.2858 4.9056 18.0249 5.36998 17.5605C5.83436 17.0961 6.09524 16.4663 6.09524 15.8096ZM3.61905 14.4762C4.08929 14.4762 4.42995 14.6209 4.65429 14.9174L4.56167 14.8865C4.5034 14.8671 4.44238 14.8572 4.38095 14.8572H1.82381C1.63117 14.7724 1.46229 14.6415 1.332 14.4762H3.61905ZM3.61905 17.1429C3.29856 17.1425 2.98892 17.0268 2.74666 16.817C2.50441 16.6071 2.3457 16.3172 2.29952 16H4.28824L4.89343 16.2018C4.80923 16.4741 4.64012 16.7124 4.41082 16.8817C4.18153 17.051 3.90408 17.1425 3.61905 17.1429Z" fill="white"/>
<path d="M5.14289 18.2858H2.09527C1.64077 18.2863 1.20502 18.467 0.883641 18.7884C0.562259 19.1098 0.381486 19.5456 0.380981 20.0001V23.4286C0.380981 23.5802 0.441185 23.7255 0.548349 23.8327C0.655513 23.9398 0.800858 24.0001 0.95241 24.0001H6.28574C6.4373 24.0001 6.58264 23.9398 6.6898 23.8327C6.79697 23.7255 6.85717 23.5802 6.85717 23.4286V20.0001C6.85667 19.5456 6.67589 19.1098 6.35451 18.7884C6.03313 18.467 5.59739 18.2863 5.14289 18.2858ZM5.71431 22.8572H1.52384V20.0001C1.524 19.8486 1.58426 19.7033 1.69139 19.5962C1.79852 19.489 1.94377 19.4288 2.09527 19.4286H5.14289C5.29439 19.4288 5.43964 19.489 5.54677 19.5962C5.65389 19.7033 5.71415 19.8486 5.71431 20.0001V22.8572Z" fill="white"/>
</svg>
