<svg width="16" height="16" viewBox="0 0 16 16" fill="none" xmlns="http://www.w3.org/2000/svg">
<path d="M11.4286 8.00011C11.4286 7.322 11.2275 6.65912 10.8508 6.09529C10.474 5.53147 9.93855 5.09202 9.31206 4.83252C8.68557 4.57302 7.9962 4.50512 7.33112 4.63741C6.66604 4.76971 6.05513 5.09625 5.57563 5.57574C5.09614 6.05523 4.7696 6.66615 4.63731 7.33123C4.50502 7.9963 4.57291 8.68567 4.83241 9.31216C5.09191 9.93865 5.53136 10.4741 6.09519 10.8509C6.65901 11.2276 7.32189 11.4287 8 11.4287C8.909 11.4277 9.78048 11.0661 10.4232 10.4233C11.066 9.78058 11.4275 8.90911 11.4286 8.00011ZM5.36098 8.38106H5.71429C5.81532 8.38106 5.91222 8.34092 5.98366 8.26948C6.0551 8.19804 6.09524 8.10114 6.09524 8.00011C6.09524 7.89907 6.0551 7.80217 5.98366 7.73073C5.91222 7.65929 5.81532 7.61915 5.71429 7.61915H5.36098C5.44409 7.04983 5.70875 6.52254 6.11559 6.1157C6.52243 5.70886 7.04972 5.4442 7.61905 5.36109V5.71439C7.61905 5.81543 7.65918 5.91232 7.73063 5.98377C7.80207 6.05521 7.89897 6.09534 8 6.09534C8.10104 6.09534 8.19793 6.05521 8.26937 5.98377C8.34082 5.91232 8.38095 5.81543 8.38095 5.71439V5.36109C8.95028 5.4442 9.47757 5.70886 9.88441 6.1157C10.2913 6.52254 10.5559 7.04983 10.639 7.61915H10.2857C10.1847 7.61915 10.0878 7.65929 10.0163 7.73073C9.9449 7.80217 9.90476 7.89907 9.90476 8.00011C9.90476 8.10114 9.9449 8.19804 10.0163 8.26948C10.0878 8.34092 10.1847 8.38106 10.2857 8.38106H10.639C10.5559 8.95038 10.2913 9.47768 9.88441 9.88452C9.47757 10.2914 8.95028 10.556 8.38095 10.6391V10.2858C8.38095 10.1848 8.34082 10.0879 8.26937 10.0164C8.19793 9.945 8.10104 9.90487 8 9.90487C7.89897 9.90487 7.80207 9.945 7.73063 10.0164C7.65918 10.0879 7.61905 10.1848 7.61905 10.2858V10.6391C7.04972 10.556 6.52243 10.2914 6.11559 9.88452C5.70875 9.47768 5.44409 8.95038 5.36098 8.38106Z" fill="#787878"/>
<path d="M7.82962 8.34083C7.90113 8.37659 7.98209 8.38894 8.06101 8.37613C8.13993 8.36332 8.21283 8.326 8.26936 8.26947L9.28524 7.25359C9.35572 7.18195 9.39504 7.08537 9.39463 6.98487C9.39422 6.88437 9.35411 6.78811 9.28305 6.71705C9.21199 6.64598 9.11573 6.60588 9.01523 6.60547C8.91473 6.60506 8.81815 6.64438 8.74651 6.71486L7.92476 7.53661L7.15451 7.15147C7.06414 7.10628 6.95952 7.09884 6.86367 7.13079C6.76782 7.16273 6.68858 7.23145 6.6434 7.32181C6.59821 7.41218 6.59077 7.5168 6.62272 7.61265C6.65466 7.7085 6.72338 7.78774 6.81374 7.83293L7.82962 8.34083Z" fill="#787878"/>
<path d="M2.15873 8.38101C2.25976 8.38101 2.35666 8.34088 2.4281 8.26944C2.49955 8.19799 2.53968 8.1011 2.53968 8.00006C2.53968 5.13339 4.76016 2.77578 7.57143 2.55651L7.2227 2.9053C7.18685 2.94057 7.15834 2.98259 7.13881 3.02893C7.11928 3.07527 7.10913 3.12502 7.10892 3.17531C7.10872 3.2256 7.11847 3.27543 7.13762 3.32193C7.15677 3.36843 7.18494 3.41067 7.2205 3.44623C7.25605 3.48179 7.2983 3.50996 7.3448 3.52911C7.3913 3.54826 7.44113 3.55801 7.49142 3.55781C7.54171 3.5576 7.59146 3.54744 7.6378 3.52792C7.68414 3.50839 7.72616 3.47988 7.76143 3.44403L8.7773 2.42816C8.84874 2.35672 8.88887 2.25982 8.88887 2.15879C8.88887 2.05776 8.84874 1.96087 8.7773 1.88943L7.76143 0.873554C7.68979 0.803072 7.5932 0.763754 7.49271 0.764163C7.39221 0.764573 7.29595 0.804676 7.22488 0.875739C7.15382 0.946801 7.11372 1.04306 7.11331 1.14356C7.1129 1.24406 7.15222 1.34065 7.2227 1.41228L7.60136 1.79098C4.35556 1.99724 1.77778 4.70305 1.77778 8.00006C1.77778 8.1011 1.81791 8.19799 1.88936 8.26944C1.9608 8.34088 2.0577 8.38101 2.15873 8.38101Z" fill="#787878"/>
<path d="M13.8413 7.61914C13.7402 7.61914 13.6433 7.65928 13.5719 7.73072C13.5005 7.80216 13.4603 7.89906 13.4603 8.00009C13.4603 10.8668 11.2398 13.2244 8.42857 13.4436L8.77733 13.0949C8.84782 13.0232 8.88713 12.9266 8.88673 12.8261C8.88632 12.7256 8.84621 12.6294 8.77515 12.5583C8.70409 12.4872 8.60782 12.4471 8.50733 12.4467C8.40683 12.4463 8.31024 12.4856 8.2386 12.5561L7.22273 13.572C7.1513 13.6434 7.11116 13.7403 7.11116 13.8414C7.11116 13.9424 7.1513 14.0393 7.22273 14.1107L8.2386 15.1266C8.31024 15.1971 8.40683 15.2364 8.50733 15.236C8.60782 15.2356 8.70409 15.1955 8.77515 15.1244C8.84621 15.0534 8.88632 14.9571 8.88673 14.8566C8.88713 14.7561 8.84782 14.6595 8.77733 14.5879L8.39867 14.2092C11.6444 14.0029 14.2222 11.2971 14.2222 8.00009C14.2222 7.89906 14.1821 7.80216 14.1106 7.73072C14.0392 7.65928 13.9423 7.61914 13.8413 7.61914Z" fill="#787878"/>
<path d="M15.4921 1.65079C15.4843 1.3712 15.4164 1.09655 15.2931 0.845492C15.0205 0.300254 14.5048 0 13.8413 0H11.8095C11.7085 0 11.6116 0.0401359 11.5401 0.111578C11.4687 0.183021 11.4286 0.279918 11.4286 0.380952C11.4286 1.03063 11.8337 1.43692 12.1907 1.64016C12.1907 1.64371 12.1905 1.64727 12.1905 1.65079C12.1905 2.08861 12.3644 2.5085 12.674 2.81808C12.9836 3.12767 13.4035 3.30159 13.8413 3.30159C14.2791 3.30159 14.699 3.12767 15.0086 2.81808C15.3181 2.5085 15.4921 2.08861 15.4921 1.65079ZM13.8413 0.761905C14.1548 0.761905 14.3819 0.858381 14.5314 1.056L14.4697 1.03543C14.4308 1.02248 14.3902 1.01587 14.3492 1.01587H12.6444C12.516 0.959332 12.4034 0.872123 12.3166 0.761905H13.8413ZM13.8413 2.53968C13.6276 2.5394 13.4212 2.46227 13.2597 2.32239C13.0982 2.18251 12.9924 1.98921 12.9616 1.77778H14.2874L14.6909 1.91229C14.6347 2.09383 14.522 2.25265 14.3691 2.36554C14.2163 2.47842 14.0313 2.53944 13.8413 2.53968Z" fill="#787878"/>
<path d="M14.8571 3.30151H12.8254C12.5224 3.30185 12.2319 3.42237 12.0176 3.63662C11.8034 3.85087 11.6829 4.14137 11.6825 4.44437V6.73009C11.6825 6.83112 11.7227 6.92802 11.7941 6.99946C11.8656 7.0709 11.9625 7.11104 12.0635 7.11104H15.619C15.7201 7.11104 15.817 7.0709 15.8884 6.99946C15.9599 6.92802 16 6.83112 16 6.73009V4.44437C15.9997 4.14137 15.8791 3.85087 15.6649 3.63662C15.4506 3.42237 15.1601 3.30185 14.8571 3.30151ZM15.2381 6.34913H12.4444V4.44437C12.4446 4.34337 12.4847 4.24654 12.5561 4.17512C12.6276 4.1037 12.7244 4.06353 12.8254 4.06342H14.8571C14.9581 4.06353 15.055 4.1037 15.1264 4.17512C15.1978 4.24654 15.238 4.34337 15.2381 4.44437V6.34913Z" fill="#787878"/>
<path d="M4.06349 10.5397C4.05569 10.2601 3.98784 9.98547 3.86454 9.73441C3.59194 9.18917 3.07619 8.88892 2.4127 8.88892H0.380952C0.279918 8.88892 0.183021 8.92905 0.111578 9.00049C0.0401359 9.07194 0 9.16883 0 9.26987C0 9.91955 0.405143 10.3258 0.762159 10.5291C0.762159 10.5326 0.761905 10.5362 0.761905 10.5397C0.761905 10.9775 0.935827 11.3974 1.24541 11.707C1.55499 12.0166 1.97488 12.1905 2.4127 12.1905C2.85052 12.1905 3.2704 12.0166 3.57999 11.707C3.88957 11.3974 4.06349 10.9775 4.06349 10.5397ZM2.4127 9.65082C2.72619 9.65082 2.9533 9.7473 3.10286 9.94492L3.04111 9.92434C3.00226 9.91139 2.96158 9.90479 2.92063 9.90479H1.21587C1.08745 9.84824 0.974862 9.76103 0.888 9.65082H2.4127ZM2.4127 11.4286C2.19904 11.4283 1.99261 11.3512 1.83111 11.2113C1.6696 11.0714 1.5638 10.8781 1.53302 10.6667H2.85883L3.26229 10.8012C3.20615 10.9827 3.09341 11.1416 2.94055 11.2545C2.78769 11.3673 2.60272 11.4284 2.4127 11.4286Z" fill="#787878"/>
<path d="M3.42857 12.1904H1.39683C1.09382 12.1908 0.803329 12.3113 0.589075 12.5255C0.37482 12.7398 0.254304 13.0303 0.253968 13.3333V15.619C0.253968 15.72 0.294104 15.8169 0.365547 15.8884C0.436989 15.9598 0.533886 16 0.634921 16H4.19048C4.29151 16 4.38841 15.9598 4.45985 15.8884C4.53129 15.8169 4.57143 15.72 4.57143 15.619V13.3333C4.57109 13.0303 4.45058 12.7398 4.23632 12.5255C4.02207 12.3113 3.73157 12.1908 3.42857 12.1904ZM3.80952 15.238H1.01587V13.3333C1.01598 13.2323 1.05615 13.1355 1.12757 13.064C1.19899 12.9926 1.29582 12.9524 1.39683 12.9523H3.42857C3.52957 12.9524 3.62641 12.9926 3.69782 13.064C3.76924 13.1355 3.80941 13.2323 3.80952 13.3333V15.238Z" fill="#787878"/>
</svg>
