<svg width="153" height="153" viewBox="0 0 153 153" fill="none" xmlns="http://www.w3.org/2000/svg">
<circle cx="76.5" cy="76.5" r="76.5" fill="url(#paint0_linear_874_39)"/>
<path d="M35.0994 117H32.1335L36.6527 103.909H40.2194L44.7322 117H41.7663L38.4872 106.901H38.3849L35.0994 117ZM34.914 111.854H41.9197V114.015H34.914V111.854ZM44.9297 106.191V103.909H55.6811V106.191H51.6733V117H48.9375V106.191H44.9297ZM66.0044 117L62.2587 103.909H65.2821L67.449 113.005H67.5577L69.9483 103.909H72.5371L74.9213 113.024H75.0364L77.2033 103.909H80.2267L76.481 117H73.7836L71.2907 108.441H71.1884L68.7019 117H66.0044ZM93.7196 110.455C93.7196 111.882 93.4491 113.097 92.9079 114.098C92.3709 115.099 91.638 115.864 90.709 116.393C89.7843 116.917 88.7445 117.179 87.5897 117.179C86.4263 117.179 85.3823 116.915 84.4576 116.386C83.5329 115.858 82.802 115.093 82.2651 114.092C81.7282 113.09 81.4597 111.878 81.4597 110.455C81.4597 109.027 81.7282 107.812 82.2651 106.811C82.802 105.81 83.5329 105.047 84.4576 104.523C85.3823 103.994 86.4263 103.73 87.5897 103.73C88.7445 103.73 89.7843 103.994 90.709 104.523C91.638 105.047 92.3709 105.81 92.9079 106.811C93.4491 107.812 93.7196 109.027 93.7196 110.455ZM90.9135 110.455C90.9135 109.53 90.775 108.75 90.4981 108.115C90.2253 107.48 89.8397 106.999 89.3411 106.67C88.8425 106.342 88.2587 106.178 87.5897 106.178C86.9206 106.178 86.3368 106.342 85.8383 106.67C85.3397 106.999 84.9519 107.48 84.6749 108.115C84.4022 108.75 84.2658 109.53 84.2658 110.455C84.2658 111.379 84.4022 112.159 84.6749 112.794C84.9519 113.429 85.3397 113.911 85.8383 114.239C86.3368 114.567 86.9206 114.731 87.5897 114.731C88.2587 114.731 88.8425 114.567 89.3411 114.239C89.8397 113.911 90.2253 113.429 90.4981 112.794C90.775 112.159 90.9135 111.379 90.9135 110.455ZM96.4899 117V103.909H101.655C102.643 103.909 103.487 104.086 104.186 104.44C104.889 104.789 105.424 105.286 105.79 105.929C106.161 106.568 106.346 107.32 106.346 108.185C106.346 109.055 106.159 109.803 105.784 110.429C105.409 111.051 104.866 111.528 104.154 111.861C103.447 112.193 102.59 112.359 101.584 112.359H98.1263V110.135H101.137C101.665 110.135 102.104 110.062 102.454 109.918C102.803 109.773 103.063 109.555 103.234 109.266C103.408 108.976 103.496 108.616 103.496 108.185C103.496 107.751 103.408 107.384 103.234 107.086C103.063 106.788 102.801 106.562 102.447 106.408C102.098 106.251 101.657 106.172 101.124 106.172H99.2577V117H96.4899ZM103.559 111.043L106.813 117H103.758L100.574 111.043H103.559ZM109.022 117V103.909H111.79V109.681H111.963L116.674 103.909H119.991L115.133 109.771L120.049 117H116.738L113.152 111.618L111.79 113.28V117H109.022Z" fill="white"/>
<path d="M68.8374 77.506C68.8374 77.989 68.4537 78.385 67.9707 78.385C67.4877 78.385 67.0918 77.989 67.0918 77.506V66.4985C67.0918 65.7561 67.4134 65.0872 67.9335 64.6046C68.4415 64.1343 69.1227 63.8495 69.8778 63.8495H80.117C80.8722 63.8495 81.5656 64.1339 82.0604 64.6046C82.5802 65.0876 82.903 65.7561 82.903 66.4985V77.506C82.903 77.989 82.5189 78.385 82.0359 78.385C81.5529 78.385 81.157 77.989 81.157 77.506V66.4985C81.157 66.2636 81.0577 66.0405 80.8844 65.8799C80.6867 65.7067 80.4264 65.5951 80.117 65.5951H75.8698V77.5065C75.8698 77.9895 75.4865 78.3854 75.0035 78.3854C74.521 78.3854 74.1246 77.9895 74.1246 77.5065V65.5947H69.8778C69.5807 65.5947 69.3204 65.7067 69.1227 65.8795C68.9494 66.04 68.8379 66.2632 68.8379 66.4981L68.8374 77.506Z" fill="white"/>
<path d="M66.3738 52.1117H72.0936C72.5766 52.1117 72.9603 52.4958 72.9603 52.9784V58.3028C72.9603 58.7858 72.5766 59.1686 72.0936 59.1686H66.3738C65.8908 59.1686 65.5071 58.7853 65.5071 58.3028V52.9784C65.5066 52.4958 65.8908 52.1117 66.3738 52.1117ZM66.3738 41.5255H72.0936C72.5766 41.5255 72.9603 41.9096 72.9603 42.3922V47.7161C72.9603 48.1991 72.5766 48.5828 72.0936 48.5828H66.3738C65.8908 48.5828 65.5071 48.1987 65.5071 47.7161V42.3926C65.5066 41.9096 65.8908 41.5255 66.3738 41.5255ZM71.2147 43.272H67.2527V46.8372H71.2147V43.272ZM80.7728 46.8372C81.2558 46.8372 81.639 47.2336 81.639 47.7166C81.639 48.1996 81.2553 48.5833 80.7728 48.5833H77.9128C77.4298 48.5833 77.0335 48.1991 77.0335 47.7166V42.3926C77.0335 41.9096 77.4294 41.5259 77.9128 41.5259C78.3958 41.5259 78.7795 41.9101 78.7795 42.3926V46.8372H80.7728ZM77.9128 52.1117H83.6205C84.1035 52.1117 84.4994 52.4958 84.4994 52.9784V58.3028C84.4994 58.7858 84.1035 59.1686 83.6205 59.1686H77.9128C77.4298 59.1686 77.0335 58.7853 77.0335 58.3028V52.9784C77.0335 52.4958 77.4298 52.1117 77.9128 52.1117ZM82.7542 53.8578H78.78V57.4234H82.7542V53.8578ZM71.2147 53.8578H67.2527V57.4234H71.2147V53.8578Z" fill="white"/>
<path d="M89.7119 52.8179C89.4647 53.2265 88.9327 53.3748 88.5236 53.1272C88.3871 53.0406 88.276 52.9294 88.2016 52.8056L80.6985 40.0897C80.3144 39.4334 79.9928 38.5917 79.7951 37.8488C79.5964 37.081 79.4976 36.2891 79.4976 35.4714C79.4976 32.8587 80.5502 30.4944 82.2709 28.7729C83.9797 27.0649 86.3444 26 88.9694 26C91.5817 26 93.9464 27.0649 95.6676 28.7733C97.376 30.4949 98.4413 32.8591 98.4413 35.4719C98.4413 36.2891 98.3297 37.0814 98.132 37.8492C97.9334 38.642 97.6236 39.3844 97.2404 40.0779L89.7119 52.8179ZM88.9694 50.6632L95.7292 39.2103C96.039 38.6534 96.2866 38.0466 96.4476 37.4152C96.6082 36.7957 96.6948 36.1522 96.6948 35.4714C96.6948 33.3417 95.829 31.4106 94.4294 30.0114C93.0303 28.6127 91.0987 27.7456 88.9694 27.7456C86.8274 27.7456 84.8959 28.6123 83.4972 30.0114C82.1099 31.4106 81.2436 33.3417 81.2436 35.4714C81.2436 36.1526 81.3298 36.7957 81.479 37.4152C81.6396 38.0339 81.8872 38.6284 82.1842 39.1854L88.9694 50.6632Z" fill="white"/>
<path d="M88.9693 30.42C90.3562 30.42 91.6188 30.9901 92.5345 31.9058C93.4511 32.8097 94.0207 34.0723 94.0207 35.4714C94.0207 36.8701 93.4507 38.1336 92.5345 39.0497C91.6184 39.9536 90.3562 40.5228 88.9693 40.5228C87.5702 40.5228 86.3072 39.9536 85.391 39.0497C84.4749 38.1336 83.918 36.8705 83.918 35.4714C83.918 34.0723 84.4749 32.8097 85.391 31.9058C86.3072 30.9897 87.5698 30.42 88.9693 30.42ZM91.2968 33.1317C90.7023 32.5375 89.8732 32.1661 88.9693 32.1661C88.0532 32.1661 87.2233 32.5375 86.6292 33.1317C86.0346 33.7385 85.6636 34.5553 85.6636 35.4719C85.6636 36.388 86.0346 37.2175 86.6292 37.812C87.2228 38.4062 88.0532 38.7776 88.9693 38.7776C89.8732 38.7776 90.7023 38.4062 91.2968 37.812C91.9032 37.2179 92.2747 36.388 92.2747 35.4719C92.2747 34.5553 91.9032 33.7385 91.2968 33.1317Z" fill="white"/>
<path d="M93.0049 68.5294C92.5219 68.5294 92.1391 68.1334 92.1391 67.6504C92.1391 67.1674 92.5224 66.7833 93.0049 66.7833H96.1746C97.2644 66.7833 98.2304 67.4151 98.6513 68.4178L102.749 78.3972C102.923 78.8181 102.984 79.2394 102.935 79.6603C102.848 80.5147 102.278 81.3066 101.523 81.7029C101.139 81.9011 100.718 82.0005 100.273 82.0005H49.7336C49.2877 82.0005 48.8669 81.9011 48.4832 81.7029C47.7154 81.3066 47.1584 80.5147 47.0596 79.6603C47.0224 79.2394 47.0841 78.8181 47.2451 78.3972L51.3558 68.4178C51.7767 67.4151 52.7422 66.7833 53.8321 66.7833H56.9768C57.4598 66.7833 57.8435 67.1679 57.8435 67.6504C57.8435 68.133 57.4598 68.5294 56.9768 68.5294H53.8321C53.4484 68.5294 53.1137 68.7149 52.9654 69.0863L48.8673 79.0653C48.8052 79.2022 48.7807 79.3378 48.7929 79.4743C48.8301 79.7591 49.0283 80.019 49.2759 80.1555C49.412 80.2176 49.5603 80.2548 49.734 80.2548H100.274C100.447 80.2548 100.596 80.2176 100.72 80.1555C100.98 80.019 101.178 79.7596 101.203 79.4743C101.215 79.3378 101.203 79.2022 101.141 79.0653L97.0426 69.0863C96.8939 68.7145 96.5596 68.5294 96.1759 68.5294H93.0049Z" fill="white"/>
<path d="M88.0906 56.569C88.0906 56.086 88.4865 55.6896 88.9695 55.6896C89.4525 55.6896 89.8362 56.086 89.8362 56.569V77.5055C89.8362 77.9885 89.4521 78.3845 88.9695 78.3845H61.0373C60.5543 78.3845 60.1707 77.9885 60.1707 77.5055V39.2357C60.1707 38.4928 60.4927 37.8239 61.0128 37.3413C61.5081 36.8705 62.2015 36.5735 62.9567 36.5735H76.7366C77.2196 36.5735 77.6033 36.9694 77.6033 37.4529C77.6033 37.9359 77.2192 38.3318 76.7366 38.3318H62.9567C62.6469 38.3318 62.387 38.4311 62.1893 38.6166C62.016 38.7772 61.9167 39.0003 61.9167 39.2357V76.6384H88.091L88.0906 56.569Z" fill="white"/>
<defs>
<linearGradient id="paint0_linear_874_39" x1="142.22" y1="8.69319" x2="22.2545" y2="141.177" gradientUnits="userSpaceOnUse">
<stop stop-color="#7DE28A"/>
<stop offset="1" stop-color="#2BB3D0"/>
</linearGradient>
</defs>
</svg>
