<svg width="29" height="32" viewBox="0 0 29 32" fill="none" xmlns="http://www.w3.org/2000/svg">
<path d="M26.546 11.4462H25.7777V7.73837C25.7777 7.71509 25.7739 7.69197 25.7709 7.66834C25.7697 7.52126 25.7228 7.37652 25.622 7.26213L19.4522 0.214601C19.4504 0.212617 19.4485 0.212033 19.4473 0.210224C19.4106 0.168961 19.3677 0.134819 19.3223 0.105404C19.3088 0.0962409 19.2954 0.088712 19.2812 0.0809497C19.242 0.0596472 19.2003 0.0417297 19.1575 0.0288314C19.1458 0.0257965 19.1355 0.0210107 19.1238 0.0178591C19.0771 0.00688685 19.0288 0 18.9799 0H3.81678C3.12436 0 2.56191 0.563146 2.56191 1.25492V11.4459H1.79368C0.803137 11.4459 0 12.2487 0 13.2394V22.5664C0 23.5566 0.803137 24.3603 1.79368 24.3603H2.56191V30.7451C2.56191 31.437 3.12436 32 3.81678 32H24.5227C25.2145 32 25.7777 31.437 25.7777 30.7451V24.3603H26.546C27.5361 24.3603 28.3394 23.557 28.3394 22.5668V13.2397C28.3395 12.2488 27.5361 11.4462 26.546 11.4462ZM3.81678 1.25492H18.3523V7.67522C18.3523 8.0219 18.6335 8.30269 18.9798 8.30269H24.5227V11.4462H3.81678V1.25492ZM13.2635 18.2782C11.7064 17.7359 10.6919 16.8744 10.6919 15.5124C10.6919 13.913 12.0261 12.6895 14.2364 12.6895C15.2932 12.6895 16.0718 12.9119 16.6275 13.1626L16.1553 14.8727C15.78 14.6914 15.1128 14.4273 14.1949 14.4273C13.2776 14.4273 12.8327 14.8445 12.8327 15.331C12.8327 15.9291 13.3608 16.193 14.5708 16.6519C16.2249 17.2635 17.0034 18.1249 17.0034 19.446C17.0034 21.0165 15.7941 22.3516 13.222 22.3516C12.1517 22.3516 11.0947 22.0729 10.5666 21.7814L10.9973 20.0296C11.5677 20.3222 12.4433 20.6136 13.3473 20.6136C14.3202 20.6136 14.8348 20.2104 14.8348 19.5983C14.8345 19.0141 14.3894 18.6808 13.2635 18.2782ZM2.22446 17.6661C2.22446 14.4689 4.50494 12.6895 7.34023 12.6895C8.43875 12.6895 9.27282 12.9119 9.64844 13.1067L9.21702 14.7885C8.7863 14.6085 8.18796 14.4419 7.43747 14.4419C5.75532 14.4419 4.44892 15.456 4.44892 17.5409C4.44892 19.4178 5.5608 20.5992 7.45206 20.5992C8.09096 20.5992 8.80007 20.4604 9.21702 20.2935L9.53703 21.9478C9.14763 22.1428 8.27206 22.3516 7.13199 22.3516C3.89283 22.3517 2.22446 20.3351 2.22446 17.6661ZM24.5227 30.405H3.81678V24.3603H24.5227V30.405ZM23.1211 22.212H20.6465L17.6437 12.8426H19.9658L21.1054 16.8051C21.4252 17.9167 21.717 18.9871 21.94 20.155H21.9814C22.2176 19.0287 22.5093 17.9167 22.8291 16.8462L24.0248 12.8426H26.2776L23.1211 22.212Z" fill="url(#paint0_linear_14_587)"/>
<defs>
<linearGradient id="paint0_linear_14_587" x1="14.1697" y1="0" x2="14.1697" y2="32" gradientUnits="userSpaceOnUse">
<stop stop-color="#5184DC"/>
<stop offset="1" stop-color="#897DD7"/>
</linearGradient>
</defs>
</svg>
