<svg width="24" height="24" viewBox="0 0 24 24" fill="none" xmlns="http://www.w3.org/2000/svg">
<path d="M19 20.0001H4.99997C4.73475 20.0001 4.4804 20.1055 4.29286 20.293C4.10533 20.4806 3.99997 20.7349 3.99997 21.0001C3.99997 21.2653 4.10533 21.5197 4.29286 21.7072C4.4804 21.8948 4.73475 22.0001 4.99997 22.0001H19C19.2652 22.0001 19.5195 21.8948 19.7071 21.7072C19.8946 21.5197 20 21.2653 20 21.0001C20 20.7349 19.8946 20.4806 19.7071 20.293C19.5195 20.1055 19.2652 20.0001 19 20.0001Z" fill="#5184DC"/>
<path d="M4.99999 18.0001H5.08999L9.25999 17.6201C9.71679 17.5746 10.144 17.3733 10.47 17.0501L19.47 8.0501C19.8193 7.68107 20.0081 7.18861 19.995 6.68064C19.9819 6.17267 19.7679 5.69061 19.4 5.3401L16.66 2.6001C16.3024 2.2642 15.8338 2.07146 15.3433 2.05855C14.8529 2.04565 14.3748 2.21347 14 2.5301L4.99999 11.5301C4.67676 11.8561 4.4755 12.2833 4.42999 12.7401L3.99999 16.9101C3.98652 17.0566 4.00553 17.2042 4.05565 17.3425C4.10578 17.4808 4.18579 17.6063 4.28999 17.7101C4.38343 17.8028 4.49425 17.8761 4.61609 17.9259C4.73792 17.9756 4.86839 18.0009 4.99999 18.0001ZM15.27 4.0001L18 6.7301L16 8.6801L13.32 6.0001L15.27 4.0001ZM6.36999 12.9101L12 7.3201L14.7 10.0201L9.09999 15.6201L6.09999 15.9001L6.36999 12.9101Z" fill="#5184DC"/>
</svg>
