<svg width="24" height="24" viewBox="0 0 24 24" fill="none" xmlns="http://www.w3.org/2000/svg">
<path d="M3.42857 0C1.53809 0 0 1.53809 0 3.42857C0 5.31906 1.53809 6.85714 3.42857 6.85714C5.31906 6.85714 6.85714 5.31906 6.85714 3.42857C6.85714 1.53809 5.31906 0 3.42857 0ZM3.42857 5.14286C2.48312 5.14286 1.71429 4.37402 1.71429 3.42857C1.71429 2.48312 2.48312 1.71429 3.42857 1.71429C4.37402 1.71429 5.14286 2.48312 5.14286 3.42857C5.14286 4.37402 4.37402 5.14286 3.42857 5.14286ZM8.57143 3.42857C8.57143 2.95522 8.95522 2.57143 9.42857 2.57143H23.1429C23.6162 2.57143 24 2.95522 24 3.42857C24 3.90193 23.6162 4.28571 23.1429 4.28571H9.42857C8.95522 4.28571 8.57143 3.90193 8.57143 3.42857ZM3.42857 8.57143C1.53809 8.57143 0 10.1095 0 12C0 13.8905 1.53809 15.4286 3.42857 15.4286C5.31906 15.4286 6.85714 13.8905 6.85714 12C6.85714 10.1095 5.31906 8.57143 3.42857 8.57143ZM3.42857 13.7143C2.48312 13.7143 1.71429 12.9455 1.71429 12C1.71429 11.0545 2.48312 10.2857 3.42857 10.2857C4.37402 10.2857 5.14286 11.0545 5.14286 12C5.14286 12.9455 4.37402 13.7143 3.42857 13.7143ZM24 12C24 12.4734 23.6162 12.8571 23.1429 12.8571H9.42857C8.95522 12.8571 8.57143 12.4734 8.57143 12C8.57143 11.5266 8.95522 11.1429 9.42857 11.1429H23.1429C23.6162 11.1429 24 11.5266 24 12ZM3.42857 17.1429C1.53809 17.1429 0 18.6809 0 20.5714C0 22.4619 1.53809 24 3.42857 24C5.31906 24 6.85714 22.4619 6.85714 20.5714C6.85714 18.6809 5.31906 17.1429 3.42857 17.1429ZM3.42857 22.2857C2.48312 22.2857 1.71429 21.5169 1.71429 20.5714C1.71429 19.626 2.48312 18.8571 3.42857 18.8571C4.37402 18.8571 5.14286 19.626 5.14286 20.5714C5.14286 21.5169 4.37402 22.2857 3.42857 22.2857ZM24 20.5714C24 21.0448 23.6162 21.4286 23.1429 21.4286H9.42857C8.95522 21.4286 8.57143 21.0448 8.57143 20.5714C8.57143 20.0981 8.95522 19.7143 9.42857 19.7143H23.1429C23.6162 19.7143 24 20.0981 24 20.5714Z" fill="url(#paint0_linear_106_372)"/>
<defs>
<linearGradient id="paint0_linear_106_372" x1="12" y1="0" x2="12" y2="24" gradientUnits="userSpaceOnUse">
<stop stop-color="#5184DC"/>
<stop offset="1" stop-color="#897DD7"/>
</linearGradient>
</defs>
</svg>
