<svg width="153" height="153" viewBox="0 0 153 153" fill="none" xmlns="http://www.w3.org/2000/svg">
<circle cx="76.5" cy="76.5" r="76.5" fill="url(#paint0_linear_874_49)"/>
<g clip-path="url(#clip0_874_49)">
<path d="M77.1321 85.0721C80.7453 85.0721 83.6743 82.1431 83.6743 78.5299C83.6743 74.9167 80.7453 71.9877 77.1321 71.9877C73.5189 71.9877 70.5898 74.9167 70.5898 78.5299C70.5898 82.1431 73.5189 85.0721 77.1321 85.0721Z" fill="white"/>
<path d="M92.7675 62.7676C92.6704 62.6678 92.5679 62.5788 92.4682 62.4871L92.1742 62.2093C92.1257 62.1581 92.0717 62.1204 92.0097 62.0718C83.5501 54.3862 70.6032 54.6909 62.5292 62.7649L61.5827 63.7141L60.2721 65.0247C58.6756 66.6212 58.6837 69.2235 60.2829 70.8227C61.8847 72.4272 64.487 72.4299 66.0808 70.8334L68.3406 68.5736C73.4752 63.4417 81.8269 63.4417 86.9588 68.5709L88.5903 70.1512C90.1706 71.7314 92.7486 71.7288 94.337 70.1377C95.1055 69.3718 95.5289 68.3498 95.5316 67.263C95.5343 66.1816 95.1163 65.1595 94.3478 64.3964L92.7675 62.7676Z" fill="white"/>
<path d="M103.913 54.6801L102.554 53.321C102.549 53.3156 102.546 53.3075 102.535 53.3048L101.462 52.2261C101.273 52.04 101.068 51.8782 100.853 51.738C87.0643 39.6325 66.0919 40.0046 52.7432 52.8464C52.6784 52.9057 52.6056 52.9461 52.5409 53.0109L50.0869 55.4676C48.6307 56.9211 48.6388 59.2861 50.1031 60.7504C51.5647 62.2121 53.9297 62.2228 55.3859 60.7639L57.8399 58.3126C57.8561 58.291 57.8696 58.2722 57.8858 58.2587C68.6807 47.8305 85.8049 47.7658 96.6861 58.0456L98.617 59.9792C100.071 61.4327 102.441 61.4273 103.903 59.9657C105.361 58.5014 105.367 56.1337 103.913 54.6801Z" fill="white"/>
</g>
<path d="M37.4218 117V103.909H42.5865C43.5752 103.909 44.4189 104.086 45.1178 104.44C45.8209 104.789 46.3557 105.286 46.7222 105.929C47.0929 106.568 47.2783 107.32 47.2783 108.185C47.2783 109.055 47.0908 109.803 46.7158 110.429C46.3408 111.051 45.7975 111.528 45.0858 111.861C44.3784 112.193 43.5219 112.359 42.5162 112.359H39.0581V110.135H42.0688C42.5972 110.135 43.0361 110.062 43.3855 109.918C43.735 109.773 43.9949 109.555 44.1654 109.266C44.3401 108.976 44.4275 108.616 44.4275 108.185C44.4275 107.751 44.3401 107.384 44.1654 107.086C43.9949 106.788 43.7328 106.562 43.3792 106.408C43.0297 106.251 42.5887 106.172 42.056 106.172H40.1895V117H37.4218ZM44.4914 111.043L47.7449 117H44.6895L41.5063 111.043H44.4914ZM49.9543 117V103.909H58.7753V106.191H52.722V109.31H58.3215V111.592H52.722V114.718H58.8009V117H49.9543ZM61.6958 103.909H65.1091L68.7142 112.705H68.8676L72.4727 103.909H75.8861V117H73.2014V108.479H73.0928L69.705 116.936H67.8769L64.4891 108.447H64.3804V117H61.6958V103.909ZM90.9163 110.455C90.9163 111.882 90.6457 113.097 90.1045 114.098C89.5676 115.099 88.8346 115.864 87.9056 116.393C86.9809 116.917 85.9411 117.179 84.7863 117.179C83.623 117.179 82.5789 116.915 81.6542 116.386C80.7295 115.858 79.9987 115.093 79.4617 114.092C78.9248 113.09 78.6563 111.878 78.6563 110.455C78.6563 109.027 78.9248 107.812 79.4617 106.811C79.9987 105.81 80.7295 105.047 81.6542 104.523C82.5789 103.994 83.623 103.73 84.7863 103.73C85.9411 103.73 86.9809 103.994 87.9056 104.523C88.8346 105.047 89.5676 105.81 90.1045 106.811C90.6457 107.812 90.9163 109.027 90.9163 110.455ZM88.1102 110.455C88.1102 109.53 87.9717 108.75 87.6947 108.115C87.422 107.48 87.0363 106.999 86.5377 106.67C86.0392 106.342 85.4553 106.178 84.7863 106.178C84.1173 106.178 83.5335 106.342 83.0349 106.67C82.5363 106.999 82.1485 107.48 81.8715 108.115C81.5988 108.75 81.4625 109.53 81.4625 110.455C81.4625 111.379 81.5988 112.159 81.8715 112.794C82.1485 113.429 82.5363 113.911 83.0349 114.239C83.5335 114.567 84.1173 114.731 84.7863 114.731C85.4553 114.731 86.0392 114.567 86.5377 114.239C87.0363 113.911 87.422 113.429 87.6947 112.794C87.9717 112.159 88.1102 111.379 88.1102 110.455ZM92.5903 106.191V103.909H103.342V106.191H99.3339V117H96.5981V106.191H92.5903ZM105.832 117V103.909H114.653V106.191H108.6V109.31H114.2V111.592H108.6V114.718H114.679V117H105.832Z" fill="white"/>
<defs>
<linearGradient id="paint0_linear_874_49" x1="142.22" y1="8.69319" x2="22.2545" y2="141.177" gradientUnits="userSpaceOnUse">
<stop stop-color="#897DD7"/>
<stop offset="1" stop-color="#E83170"/>
</linearGradient>
<clipPath id="clip0_874_49">
<rect width="56" height="56" fill="white" transform="translate(49 36)"/>
</clipPath>
</defs>
</svg>
