<svg width="32" height="32" viewBox="0 0 32 32" fill="none" xmlns="http://www.w3.org/2000/svg">
<path d="M31.2631 21.6043L29.183 18.733C28.7461 18.093 28.3509 16.8822 28.3509 16.173V11.7968C28.3509 7.73189 25.4803 4.22054 21.3409 2.5773C20.2592 0.985946 18.2623 0 15.9741 0C13.7068 0 11.6683 1.02054 10.5866 2.62919C6.53037 4.30703 3.72219 7.78378 3.72219 11.7968V16.173C3.72219 16.8822 3.32696 18.093 2.89013 18.7157L0.789195 21.6043C-0.0428596 22.7632 -0.230071 24.0432 0.289963 25.2195C0.789195 26.3784 1.97487 27.2778 3.51417 27.7103C7.54964 28.8519 11.7931 29.4054 16.0365 29.4054C20.28 29.4054 24.5235 28.8519 28.5589 27.7276C30.015 27.3297 31.1383 26.413 31.6791 25.2195C32.22 24.0259 32.0744 22.7113 31.2631 21.6043Z" fill="url(#paint0_linear_13_23)"/>
<path d="M21.8812 28.5578C21.0076 30.5643 18.6986 32 15.9944 32C14.3511 32 12.7286 31.4465 11.5845 30.4605C10.9189 29.9416 10.4196 29.2497 10.1284 28.5405C10.3988 28.5751 10.6693 28.5924 10.9605 28.627C11.4389 28.6789 11.9382 28.7308 12.4374 28.7654C13.6231 28.8519 14.8295 28.9038 16.036 28.9038C17.2217 28.9038 18.4074 28.8519 19.5723 28.7654C20.0091 28.7308 20.4459 28.7135 20.8619 28.6616C21.1948 28.627 21.5276 28.5924 21.8812 28.5578Z" fill="url(#paint1_linear_13_23)"/>
<defs>
<linearGradient id="paint0_linear_13_23" x1="16" y1="0" x2="16" y2="29.4054" gradientUnits="userSpaceOnUse">
<stop stop-color="#5184DC"/>
<stop offset="1" stop-color="#897DD7"/>
</linearGradient>
<linearGradient id="paint1_linear_13_23" x1="16.0048" y1="28.5405" x2="16.0048" y2="32" gradientUnits="userSpaceOnUse">
<stop stop-color="#5184DC"/>
<stop offset="1" stop-color="#897DD7"/>
</linearGradient>
</defs>
</svg>
