<svg width="32" height="32" viewBox="0 0 32 32" fill="none" xmlns="http://www.w3.org/2000/svg">
<g clip-path="url(#clip0_14_470)">
<path d="M27.3807 17.0825H24.9059C25.1582 17.7731 25.296 18.5185 25.296 19.2953V28.6484C25.296 28.9723 25.2396 29.2832 25.1371 29.5723H29.2284C30.7567 29.5723 32 28.3289 32 26.8007V21.7018C32.0001 19.1548 29.9278 17.0825 27.3807 17.0825Z" fill="url(#paint0_linear_14_470)"/>
<path d="M6.70408 19.2954C6.70408 18.5185 6.84189 17.7733 7.09414 17.0826H4.61938C2.07225 17.0826 0 19.1549 0 21.702V26.8008C0 28.3291 1.24331 29.5725 2.77163 29.5725H6.86301C6.76045 29.2832 6.70408 28.9724 6.70408 28.6485V19.2954Z" fill="url(#paint1_linear_14_470)"/>
<path d="M18.8289 14.676H13.1712C10.6241 14.676 8.55183 16.7483 8.55183 19.2954V28.6486C8.55183 29.1587 8.96546 29.5724 9.47571 29.5724H22.5244C23.0346 29.5724 23.4482 29.1588 23.4482 28.6486V19.2954C23.4482 16.7483 21.376 14.676 18.8289 14.676Z" fill="url(#paint2_linear_14_470)"/>
<path d="M16 2.42749C12.9368 2.42749 10.4446 4.91962 10.4446 7.98294C10.4446 10.0608 11.5915 11.8754 13.2851 12.8282C14.0884 13.2801 15.0145 13.5383 16 13.5383C16.9855 13.5383 17.9117 13.2801 18.715 12.8282C20.4087 11.8754 21.5554 10.0607 21.5554 7.98294C21.5554 4.91968 19.0633 2.42749 16 2.42749Z" fill="url(#paint3_linear_14_470)"/>
<path d="M6.24489 7.60559C3.95395 7.60559 2.09019 9.46934 2.09019 11.7603C2.09019 14.0512 3.95395 15.915 6.24489 15.915C6.82602 15.915 7.37939 15.7946 7.88208 15.5782C8.75121 15.204 9.46783 14.5417 9.91127 13.712C10.2225 13.1297 10.3996 12.4654 10.3996 11.7603C10.3996 9.46941 8.53583 7.60559 6.24489 7.60559Z" fill="url(#paint4_linear_14_470)"/>
<path d="M25.7552 7.60559C23.4642 7.60559 21.6005 9.46934 21.6005 11.7603C21.6005 12.4654 21.7775 13.1297 22.0888 13.712C22.5322 14.5417 23.2489 15.2041 24.118 15.5782C24.6207 15.7946 25.174 15.915 25.7552 15.915C28.0461 15.915 29.9099 14.0512 29.9099 11.7603C29.9099 9.46934 28.0461 7.60559 25.7552 7.60559Z" fill="url(#paint5_linear_14_470)"/>
</g>
<defs>
<linearGradient id="paint0_linear_14_470" x1="28.453" y1="17.0825" x2="28.453" y2="29.5723" gradientUnits="userSpaceOnUse">
<stop stop-color="#5184DC"/>
<stop offset="1" stop-color="#897DD7"/>
</linearGradient>
<linearGradient id="paint1_linear_14_470" x1="3.54707" y1="17.0826" x2="3.54707" y2="29.5725" gradientUnits="userSpaceOnUse">
<stop stop-color="#5184DC"/>
<stop offset="1" stop-color="#897DD7"/>
</linearGradient>
<linearGradient id="paint2_linear_14_470" x1="16" y1="14.676" x2="16" y2="29.5724" gradientUnits="userSpaceOnUse">
<stop stop-color="#5184DC"/>
<stop offset="1" stop-color="#897DD7"/>
</linearGradient>
<linearGradient id="paint3_linear_14_470" x1="16" y1="2.42749" x2="16" y2="13.5383" gradientUnits="userSpaceOnUse">
<stop stop-color="#5184DC"/>
<stop offset="1" stop-color="#897DD7"/>
</linearGradient>
<linearGradient id="paint4_linear_14_470" x1="6.24489" y1="7.60559" x2="6.24489" y2="15.915" gradientUnits="userSpaceOnUse">
<stop stop-color="#5184DC"/>
<stop offset="1" stop-color="#897DD7"/>
</linearGradient>
<linearGradient id="paint5_linear_14_470" x1="25.7552" y1="7.60559" x2="25.7552" y2="15.915" gradientUnits="userSpaceOnUse">
<stop stop-color="#5184DC"/>
<stop offset="1" stop-color="#897DD7"/>
</linearGradient>
<clipPath id="clip0_14_470">
<rect width="32" height="32" fill="white"/>
</clipPath>
</defs>
</svg>
