<svg width="32" height="32" viewBox="0 0 32 32" fill="none" xmlns="http://www.w3.org/2000/svg">
<path d="M18.6032 2.23128C17.1052 0.94732 14.8948 0.94732 13.3968 2.23128L2.21693 11.8141C1.45555 12.4667 1.91707 13.7143 2.91987 13.7143C3.51641 13.7143 4 14.1979 4 14.7944V28C4 30.2091 5.79086 32 8 32C10.2091 32 12 30.2091 12 28V26.8571C12 24.648 13.7909 22.8571 16 22.8571C18.2091 22.8571 20 24.648 20 26.8571V28C20 30.2091 21.7909 32 24 32C26.2091 32 28 30.2091 28 28V14.6426C28 14.0602 28.4827 13.5937 29.0648 13.6137C30.0377 13.647 30.5092 12.4365 29.7702 11.803L18.6032 2.23128Z" fill="url(#paint0_linear_46_301)"/>
<defs>
<linearGradient id="paint0_linear_46_301" x1="16" y1="0" x2="16" y2="32" gradientUnits="userSpaceOnUse">
<stop stop-color="#5184DC"/>
<stop offset="1" stop-color="#897DD7"/>
</linearGradient>
</defs>
</svg>
