<svg width="32" height="32" viewBox="0 0 32 32" fill="none" xmlns="http://www.w3.org/2000/svg">
<path d="M15.5063 25.3044C15.5068 23.7227 15.9611 22.1704 16.8214 20.8108C17.6817 19.4512 18.9161 18.3345 20.3949 17.5782C21.8736 16.8219 23.5421 16.454 25.2246 16.5132C26.9072 16.5723 28.5416 17.0564 29.9561 17.9144C29.9661 17.2625 29.9714 16.5669 29.9714 15.8162C29.9714 11.9569 29.8317 9.54812 29.5556 7.05312H29.5948C29.4421 5.66283 28.8769 4.34075 27.9635 3.23743C27.0502 2.13412 25.8253 1.29392 24.4285 0.8125C24.3546 0.78625 24.2808 0.76125 24.2063 0.7375C23.6542 0.563195 23.0835 0.446451 22.5043 0.389375L22.4491 0.38375C20.2395 0.170625 19.8849 0 15.2255 0C10.5662 0 9.81238 0.170625 7.60479 0.386875L7.54957 0.3925C6.94158 0.452479 6.34301 0.578315 5.7658 0.7675V0.739375C4.32657 1.19905 3.05782 2.03673 2.10995 3.15311C1.16208 4.2695 0.574838 5.61778 0.417831 7.03813C0.141051 9.53813 0 11.9494 0 15.8162C0 19.6831 0.141051 22.0944 0.417831 24.5944C0.606828 26.3004 1.41468 27.8934 2.70583 29.1061C3.99699 30.3189 5.69289 31.0776 7.50898 31.255L7.56421 31.2606C9.77379 31.4769 10.1277 31.6475 14.7871 31.6475C16.3307 31.6475 17.4484 31.6287 18.326 31.5956C17.4323 30.7772 16.7223 29.7988 16.238 28.7182C15.7537 27.6376 15.5049 26.4768 15.5063 25.3044ZM7.72189 8.32187H22.2468C22.6672 8.32187 23.0703 8.47873 23.3675 8.75792C23.6647 9.03712 23.8317 9.41578 23.8317 9.81063C23.8317 10.2055 23.6647 10.5841 23.3675 10.8633C23.0703 11.1425 22.6672 11.2994 22.2468 11.2994H7.72522C7.30489 11.2994 6.90179 11.1425 6.60457 10.8633C6.30736 10.5841 6.14039 10.2055 6.14039 9.81063C6.14039 9.41578 6.30736 9.03712 6.60457 8.75792C6.90179 8.47873 7.30489 8.32187 7.72522 8.32187H7.72189ZM7.72189 17.67C7.3071 17.662 6.91217 17.5016 6.62183 17.2232C6.33149 16.9449 6.16887 16.5707 6.16887 16.1809C6.16887 15.7912 6.33149 15.417 6.62183 15.1386C6.91217 14.8602 7.3071 14.6999 7.72189 14.6919H16.006C16.2169 14.6878 16.4265 14.7233 16.6226 14.7963C16.8187 14.8693 16.9974 14.9784 17.148 15.1171C17.2987 15.2557 17.4184 15.4213 17.5001 15.6039C17.5819 15.7866 17.624 15.9828 17.624 16.1809C17.624 16.3791 17.5819 16.5753 17.5001 16.7579C17.4184 16.9406 17.2987 17.1061 17.148 17.2448C16.9974 17.3835 16.8187 17.4925 16.6226 17.5655C16.4265 17.6385 16.2169 17.6741 16.006 17.67H7.72189Z" fill="url(#paint0_linear_13_51)"/>
<path d="M24.8723 18.6088C23.4625 18.6088 22.0844 19.0015 20.9123 19.7372C19.7401 20.4729 18.8266 21.5186 18.2871 22.7421C17.7476 23.9656 17.6064 25.3118 17.8815 26.6106C18.1565 27.9095 18.8353 29.1025 19.8322 30.0389C20.829 30.9753 22.0991 31.613 23.4817 31.8714C24.8643 32.1297 26.2975 31.9971 27.5999 31.4903C28.9023 30.9836 30.0156 30.1254 30.7988 29.0243C31.582 27.9232 32 26.6287 32 25.3044C32 23.5286 31.249 21.8255 29.9123 20.5699C28.5756 19.3142 26.7627 18.6088 24.8723 18.6088ZM27.6973 26.2844H24.7305C24.5056 26.2844 24.2898 26.2004 24.1307 26.051C23.9716 25.9015 23.8822 25.6989 23.8822 25.4875V21.2063C23.8822 20.9949 23.9716 20.7922 24.1307 20.6428C24.2898 20.4933 24.5056 20.4094 24.7305 20.4094C24.9555 20.4094 25.1713 20.4933 25.3304 20.6428C25.4895 20.7922 25.5788 20.9949 25.5788 21.2063V24.6906H27.6973C27.9223 24.6906 28.138 24.7746 28.2971 24.924C28.4562 25.0735 28.5456 25.2762 28.5456 25.4875C28.5456 25.6989 28.4562 25.9015 28.2971 26.051C28.138 26.2004 27.9223 26.2844 27.6973 26.2844Z" fill="url(#paint1_linear_13_51)"/>
<defs>
<linearGradient id="paint0_linear_13_51" x1="14.9857" y1="0" x2="14.9857" y2="31.6475" gradientUnits="userSpaceOnUse">
<stop stop-color="#5184DC"/>
<stop offset="1" stop-color="#897DD7"/>
</linearGradient>
<linearGradient id="paint1_linear_13_51" x1="24.8723" y1="18.6088" x2="24.8723" y2="32" gradientUnits="userSpaceOnUse">
<stop stop-color="#5184DC"/>
<stop offset="1" stop-color="#897DD7"/>
</linearGradient>
</defs>
</svg>
