<svg width="32" height="32" viewBox="0 0 32 32" fill="none" xmlns="http://www.w3.org/2000/svg">
<path d="M16 0C7.16437 0 0 7.16296 0 15.9993C0 24.8356 7.16366 31.9986 16 31.9986C24.837 31.9986 32 24.8356 32 15.9993C32 7.16296 24.837 0 16 0ZM16 4.78398C18.9237 4.78398 21.2928 7.15383 21.2928 10.0761C21.2928 12.999 18.9237 15.3682 16 15.3682C13.0777 15.3682 10.7086 12.999 10.7086 10.0761C10.7086 7.15383 13.0777 4.78398 16 4.78398ZM15.9965 27.8155C13.0806 27.8155 10.4099 26.7536 8.35 24.9959C7.84819 24.5679 7.55864 23.9403 7.55864 23.2817C7.55864 20.318 9.9573 17.9461 12.9217 17.9461H19.0797C22.0448 17.9461 24.4343 20.318 24.4343 23.2817C24.4343 23.941 24.1462 24.5672 23.6437 24.9952C21.5845 26.7536 18.9131 27.8155 15.9965 27.8155Z" fill="url(#paint0_linear_13_349)"/>
<path d="M1 15.9993C1 7.71533 7.71657 1 16 1C24.2848 1 31 7.71528 31 15.9993C31 24.2833 24.2848 30.9986 16 30.9986C7.71589 30.9986 1 24.2833 1 15.9993ZM22.2928 10.0761C22.2928 6.60154 19.4759 3.78398 16 3.78398C12.5253 3.78398 9.7086 6.60171 9.7086 10.0761C9.7086 13.5512 12.5254 16.3682 16 16.3682C19.4759 16.3682 22.2928 13.5514 22.2928 10.0761ZM6.55864 23.2817C6.55864 24.2332 6.9766 25.1387 7.70089 25.7566L7.70105 25.7567C9.9347 27.6626 12.8333 28.8155 15.9965 28.8155C19.1601 28.8155 22.0594 27.6628 24.2926 25.756C25.0185 25.1375 25.4343 24.2329 25.4343 23.2817C25.4343 19.7613 22.5926 16.9461 19.0797 16.9461H12.9217C9.41163 16.9461 6.55864 19.7591 6.55864 23.2817Z" stroke="url(#paint1_linear_13_349)" stroke-opacity="0.5" stroke-width="2"/>
<defs>
<linearGradient id="paint0_linear_13_349" x1="16" y1="0" x2="16" y2="31.9986" gradientUnits="userSpaceOnUse">
<stop stop-color="#5184DC"/>
<stop offset="1" stop-color="#897DD7"/>
</linearGradient>
<linearGradient id="paint1_linear_13_349" x1="16" y1="0" x2="16" y2="31.9986" gradientUnits="userSpaceOnUse">
<stop stop-color="#5184DC"/>
<stop offset="1" stop-color="#897DD7"/>
</linearGradient>
</defs>
</svg>
