<svg width="34" height="34" viewBox="0 0 34 34" fill="none" xmlns="http://www.w3.org/2000/svg">
<g clip-path="url(#clip0_14_438)">
<path d="M24.0416 8.89966L14.1421 8.89966C13.88 8.90422 13.6301 9.01156 13.4463 9.19857C13.2625 9.38558 13.1595 9.6373 13.1595 9.89951C13.1595 10.1617 13.2625 10.4134 13.4463 10.6004C13.6301 10.7875 13.88 10.8948 14.1421 10.8994L21.6276 10.8994L9.19239 23.3345C9.00485 23.5221 8.89949 23.7764 8.89949 24.0416C8.89949 24.3069 9.00485 24.5612 9.19239 24.7488C9.37992 24.9363 9.63428 25.0416 9.89949 25.0416C10.1647 25.0416 10.4191 24.9363 10.6066 24.7488L23.0418 12.3136L23.0418 19.799C23.0395 19.9318 23.0636 20.0637 23.1128 20.187C23.1621 20.3103 23.2353 20.4226 23.3284 20.5173C23.4215 20.612 23.5325 20.6872 23.6549 20.7386C23.7774 20.7899 23.9088 20.8164 24.0416 20.8164C24.1744 20.8164 24.3059 20.7899 24.4283 20.7386C24.5508 20.6872 24.6618 20.612 24.7549 20.5173C24.8479 20.4226 24.9212 20.3103 24.9704 20.187C25.0196 20.0637 25.0438 19.9318 25.0415 19.799V9.89951C25.0414 9.63434 24.9361 9.38005 24.7486 9.19255C24.5611 9.00505 24.3068 8.8997 24.0416 8.89966Z" fill="#619DEA"/>
</g>
<defs>
<clipPath id="clip0_14_438">
<rect width="24" height="24" fill="white" transform="translate(0 16.9706) rotate(-45)"/>
</clipPath>
</defs>
</svg>
