<svg width="34" height="34" viewBox="0 0 34 34" fill="none" xmlns="http://www.w3.org/2000/svg">
<g clip-path="url(#clip0_14_435)">
<path d="M25.0414 24.0417L25.0414 14.1422C25.0368 13.88 24.9295 13.6301 24.7425 13.4463C24.5555 13.2625 24.3037 13.1595 24.0415 13.1595C23.7793 13.1595 23.5276 13.2625 23.3406 13.4463C23.1536 13.6301 23.0462 13.88 23.0417 14.1422L23.0417 21.6276L10.6065 9.19242C10.419 9.00488 10.1646 8.89952 9.8994 8.89952C9.63418 8.89952 9.37983 9.00488 9.19229 9.19242C9.00475 9.37995 8.8994 9.63431 8.8994 9.89952C8.8994 10.1647 9.00475 10.4191 9.19229 10.6066L21.6275 23.0418L14.142 23.0418C14.0093 23.0395 13.8774 23.0637 13.754 23.1129C13.6307 23.1621 13.5184 23.2354 13.4237 23.3284C13.329 23.4215 13.2538 23.5325 13.2025 23.655C13.1511 23.7774 13.1247 23.9089 13.1247 24.0417C13.1247 24.1744 13.1511 24.3059 13.2025 24.4284C13.2538 24.5508 13.329 24.6618 13.4237 24.7549C13.5184 24.848 13.6307 24.9212 13.7541 24.9704C13.8774 25.0197 14.0093 25.0438 14.142 25.0415H24.0415C24.3067 25.0415 24.561 24.9361 24.7485 24.7486C24.936 24.5611 25.0413 24.3068 25.0414 24.0417Z" fill="#619DEA"/>
</g>
<defs>
<clipPath id="clip0_14_435">
<rect width="24" height="24" fill="white" transform="translate(16.9705) rotate(45)"/>
</clipPath>
</defs>
</svg>
