<svg width="32" height="32" viewBox="0 0 32 32" fill="none" xmlns="http://www.w3.org/2000/svg">
<path d="M16.1771 30.6415C15.848 30.163 15.5627 29.6565 15.3255 29.1272C14.7841 27.9192 14.5049 26.619 14.5063 25.3041L16.1771 30.6415ZM16.1771 30.6415C15.7566 30.6455 15.2955 30.6475 14.7871 30.6475C11.1108 30.6475 10.1766 30.5422 8.81876 30.3892C8.47734 30.3507 8.10913 30.3092 7.66382 30.2656C7.66308 30.2655 7.66234 30.2655 7.66161 30.2654L7.61035 30.2601L7.60619 30.2597C6.00282 30.1031 4.51546 29.4339 3.39047 28.3772C2.26669 27.3217 1.57367 25.9457 1.41176 24.4843L16.1771 30.6415ZM5.43114 1.92953C4.43043 2.35623 3.55354 2.99793 2.87225 3.80034C2.05004 4.76873 1.5463 5.93103 1.41178 7.148L1.41176 7.14816C1.13976 9.60502 1 11.9788 1 15.8162C1 19.6536 1.13975 22.0274 1.41175 24.4843L5.43114 1.92953ZM5.43114 1.92953L6.07726 1.71776C6.58482 1.5514 7.11185 1.44054 7.64774 1.38767L7.6509 1.38735L7.70422 1.38192C8.05027 1.34801 8.35956 1.31533 8.65299 1.28432C10.2262 1.11807 11.3435 1 15.2255 1C18.8924 1 19.8318 1.10476 21.1845 1.25561C21.529 1.29403 21.9004 1.33544 22.3504 1.37887C22.3513 1.37896 22.3522 1.37904 22.3531 1.37913L22.403 1.38423L22.4063 1.38455C22.9165 1.43483 23.4187 1.53758 23.9039 1.69071C23.9667 1.71072 24.0296 1.73203 24.0936 1.75475L24.0935 1.75479L24.1026 1.75793C25.3316 2.18149 26.4008 2.91786 27.1932 3.87513C27.8326 4.64741 28.2717 5.5388 28.4861 6.48038L28.5616 7.16312C28.8329 9.61475 28.9714 11.986 28.9714 15.8162C28.9714 15.9816 28.9711 16.1441 28.9706 16.3041C27.799 15.8279 26.5411 15.5588 25.2597 15.5138C23.4095 15.4488 21.572 15.853 19.9395 16.6879C18.3068 17.523 16.9355 18.7602 15.9763 20.2761C15.0169 21.7925 14.5071 23.5292 14.5063 25.3032L5.43114 1.92953ZM7.70265 18.6698L7.71227 18.67H7.72189H15.9975C16.3293 18.6751 16.6601 18.6186 16.9715 18.5027C17.2864 18.3855 17.5771 18.209 17.8252 17.9806C18.0735 17.7521 18.2745 17.4759 18.413 17.1663C18.5516 16.8565 18.624 16.5213 18.624 16.1809C18.624 15.8406 18.5516 15.5054 18.413 15.1956C18.2745 14.886 18.0735 14.6097 17.8252 14.3812C17.5771 14.1529 17.2864 13.9764 16.9715 13.8592C16.6601 13.7432 16.3293 13.6868 15.9975 13.6919H7.72189H7.71227L7.70265 13.6921C7.04532 13.7047 6.40766 13.9586 5.92974 14.4168C5.44981 14.877 5.16887 15.509 5.16887 16.1809C5.16887 16.8529 5.44981 17.4849 5.92974 17.9451C6.40766 18.4033 7.04532 18.6572 7.70265 18.6698ZM22.2468 7.32187H7.72522H7.72189C7.05699 7.3227 6.40795 7.57061 5.9199 8.02907C5.42893 8.49028 5.14039 9.12967 5.14039 9.81063C5.14039 10.4916 5.42893 11.131 5.9199 11.5922C6.40876 12.0514 7.05916 12.2994 7.72522 12.2994H22.2468C22.9129 12.2994 23.5633 12.0514 24.0522 11.5922C24.5431 11.131 24.8317 10.4916 24.8317 9.81063C24.8317 9.12967 24.5431 8.49028 24.0522 8.02907C23.5633 7.56985 22.9129 7.32187 22.2468 7.32187Z" stroke="url(#paint0_linear_46_311)" stroke-opacity="0.5" stroke-width="2"/>
<path d="M21.4439 20.5841C22.1277 20.155 22.8956 19.8598 23.7007 19.7139C23.6108 19.7725 23.5255 19.8392 23.446 19.9139C23.0932 20.2454 22.8822 20.7088 22.8822 21.2062V25.4875C22.8822 25.985 23.0932 26.4484 23.446 26.7798C23.7968 27.1093 24.2598 27.2844 24.7305 27.2844H27.6973C28.168 27.2844 28.631 27.1093 28.9818 26.7798C29.3346 26.4484 29.5456 25.985 29.5456 25.4875C29.5456 24.99 29.3346 24.5266 28.9818 24.1952C28.6311 23.8657 28.168 23.6906 27.6973 23.6906H26.5788V21.2062C26.5788 20.7088 26.3679 20.2454 26.015 19.9139C25.9084 19.8138 25.7914 19.7279 25.667 19.6568C27.0151 19.8208 28.2688 20.398 29.2277 21.2987C30.3706 22.3724 31 23.8147 31 25.3044C31 26.4164 30.6493 27.5091 29.9839 28.4446C29.3178 29.381 28.3644 30.1198 27.2373 30.5584C26.1098 30.9971 24.866 31.1127 23.6654 30.8884C22.4649 30.6641 21.3703 30.1117 20.5168 29.31C19.6641 28.509 19.0912 27.4962 18.8598 26.4035C18.6285 25.3114 18.7465 24.1786 19.2021 23.1455C19.658 22.1116 20.4347 21.2176 21.4439 20.5841Z" stroke="url(#paint1_linear_46_311)" stroke-opacity="0.5" stroke-width="2"/>
<defs>
<linearGradient id="paint0_linear_46_311" x1="14.9857" y1="0" x2="14.9857" y2="31.6475" gradientUnits="userSpaceOnUse">
<stop stop-color="#5184DC"/>
<stop offset="1" stop-color="#897DD7"/>
</linearGradient>
<linearGradient id="paint1_linear_46_311" x1="24.8723" y1="18.6087" x2="24.8723" y2="32" gradientUnits="userSpaceOnUse">
<stop stop-color="#5184DC"/>
<stop offset="1" stop-color="#897DD7"/>
</linearGradient>
</defs>
</svg>
