<svg width="32" height="32" viewBox="0 0 32 32" fill="none" xmlns="http://www.w3.org/2000/svg">
<path d="M18.6032 2.23128C17.1052 0.94732 14.8948 0.94732 13.3968 2.23128L2.21693 11.8141C1.45555 12.4667 1.91707 13.7143 2.91987 13.7143C3.51641 13.7143 4 14.1979 4 14.7944V28C4 30.2091 5.79086 32 8 32C10.2091 32 12 30.2091 12 28V26.8571C12 24.648 13.7909 22.8571 16 22.8571C18.2091 22.8571 20 24.648 20 26.8571V28C20 30.2091 21.7909 32 24 32C26.2091 32 28 30.2091 28 28V14.6426C28 14.0602 28.4827 13.5937 29.0648 13.6137C30.0377 13.647 30.5092 12.4365 29.7702 11.803L18.6032 2.23128Z" fill="white"/>
<path d="M14.0476 2.99054C15.1711 2.02757 16.8289 2.02757 17.9524 2.99054L29.1194 12.5622C29.1256 12.5676 29.1292 12.5715 29.131 12.5737L29.132 12.5749C29.1321 12.5783 29.1316 12.5854 29.1277 12.5954C29.1238 12.6054 29.1193 12.611 29.117 12.6135L29.1155 12.6137C29.1127 12.6141 29.1073 12.6145 29.0991 12.6142C27.9516 12.5749 27 13.4945 27 14.6426V28C27 29.6569 25.6569 31 24 31C22.3431 31 21 29.6569 21 28V26.8571C21 24.0957 18.7614 21.8571 16 21.8571C13.2386 21.8571 11 24.0957 11 26.8571V28C11 29.6569 9.65685 31 8 31C6.34315 31 5 29.6569 5 28V14.7944C5 13.6456 4.06869 12.7143 2.91987 12.7143C2.89926 12.7143 2.8884 12.7113 2.88426 12.7099C2.87982 12.7084 2.87664 12.7067 2.87352 12.7044C2.86628 12.6991 2.85346 12.6856 2.84472 12.662C2.83597 12.6383 2.83695 12.6198 2.83897 12.611C2.83984 12.6072 2.84113 12.6038 2.84354 12.5998C2.8458 12.5961 2.85208 12.5867 2.86772 12.5733L14.0476 2.99054Z" stroke="url(#paint0_linear_13_18)" stroke-opacity="0.5" stroke-width="2"/>
<defs>
<linearGradient id="paint0_linear_13_18" x1="16" y1="0" x2="16" y2="32" gradientUnits="userSpaceOnUse">
<stop stop-color="#5184DC"/>
<stop offset="1" stop-color="#897DD7"/>
</linearGradient>
</defs>
</svg>
