<svg width="32" height="32" viewBox="0 0 32 32" fill="none" xmlns="http://www.w3.org/2000/svg">
<path d="M30.4533 22.191L30.4565 22.1954C31.0635 23.0237 31.1538 23.956 30.7683 24.8067C30.3662 25.6939 29.5037 26.4328 28.2954 26.7629L28.2905 26.7643C24.347 27.863 20.1941 28.4054 16.0365 28.4054C11.879 28.4054 7.72752 27.863 3.78639 26.748L3.78463 26.7475C2.43949 26.3696 1.5536 25.6252 1.20837 24.8238L1.20842 24.8238L1.20456 24.8151C0.849821 24.0127 0.942577 23.1066 1.59988 22.1898C1.60043 22.1891 1.60097 22.1883 1.60152 22.1875L3.69886 19.3039L3.70388 19.297L3.70879 19.29C4.00436 18.8686 4.24983 18.3094 4.42045 17.7875C4.58971 17.2699 4.72219 16.6765 4.72219 16.173V11.7968C4.72219 8.28569 7.18763 5.11733 10.9689 3.55326L11.248 3.43781L11.4165 3.18718C12.2857 1.89444 13.989 1 15.9741 1C17.9876 1 19.648 1.86563 20.5138 3.13945L20.6865 3.39343L20.9719 3.50674C24.83 5.0383 27.3509 8.23932 27.3509 11.7968V16.173C27.3509 16.6765 27.4834 17.2697 27.6522 17.7884C27.8229 18.3129 28.0668 18.8715 28.357 19.2967L28.3649 19.3083L28.3731 19.3196L30.4533 22.191Z" stroke="url(#paint0_linear_46_306)" stroke-opacity="0.5" stroke-width="2"/>
<path d="M12.3029 29.7584C12.3241 29.7599 12.3452 29.7614 12.3665 29.7629C13.5714 29.8507 14.8018 29.9038 16.036 29.9038C17.2505 29.9038 18.4613 29.8506 19.6463 29.7627L19.6463 29.7627L19.6512 29.7623C19.6703 29.7608 19.6897 29.7593 19.7094 29.7578C18.775 30.5099 17.4766 31 15.9944 31C14.592 31 13.2408 30.5351 12.3029 29.7584Z" stroke="url(#paint1_linear_46_306)" stroke-opacity="0.5" stroke-width="2"/>
<defs>
<linearGradient id="paint0_linear_46_306" x1="16" y1="0" x2="16" y2="29.4054" gradientUnits="userSpaceOnUse">
<stop stop-color="#5184DC"/>
<stop offset="1" stop-color="#897DD7"/>
</linearGradient>
<linearGradient id="paint1_linear_46_306" x1="16.0048" y1="28.5405" x2="16.0048" y2="32" gradientUnits="userSpaceOnUse">
<stop stop-color="#5184DC"/>
<stop offset="1" stop-color="#897DD7"/>
</linearGradient>
</defs>
</svg>
