<svg width="36" height="36" viewBox="0 0 36 36" fill="none" xmlns="http://www.w3.org/2000/svg">
<g clip-path="url(#clip0_342_243)">
<path d="M35.5602 24.4862C35.2789 24.205 34.8974 24.047 34.4997 24.047C34.1019 24.047 33.7205 24.205 33.4392 24.4862L24.9987 32.9282L20.9667 28.9487C20.6882 28.6632 20.3078 28.5001 19.909 28.4952C19.5103 28.4903 19.1259 28.6439 18.8404 28.9224C18.555 29.2009 18.3919 29.5814 18.387 29.9801C18.382 30.3789 18.5357 30.7632 18.8142 31.0487L22.9302 35.0987C23.1884 35.377 23.5002 35.6003 23.8469 35.7549C24.1937 35.9096 24.5681 35.9925 24.9477 35.9987H24.9972C25.3693 35.9999 25.7379 35.9272 26.0817 35.7848C26.4254 35.6424 26.7375 35.4332 26.9997 35.1692L35.5602 26.6072C35.8414 26.3259 35.9994 25.9444 35.9994 25.5467C35.9994 25.1489 35.8414 24.7675 35.5602 24.4862Z" fill="#5184DC"/>
<path d="M16.635 32.9374C13.7386 32.6727 10.9815 31.5716 8.69959 29.7683C6.41763 27.9649 4.70918 25.5371 3.78221 22.7802C2.85524 20.0234 2.74975 17.0565 3.47858 14.2408C4.20741 11.4251 5.73912 8.88201 7.88724 6.92115C10.0354 4.96028 12.7072 3.66621 15.5775 3.1965C18.4479 2.72678 21.3928 3.10167 24.0539 4.27553C26.715 5.44939 28.9775 7.37159 30.5658 9.8081C32.1541 12.2446 32.9999 15.0904 33 17.9989C33 18.4594 32.9775 18.9154 32.9385 19.3654C32.9201 19.562 32.9408 19.7604 32.9993 19.949C33.0578 20.1377 33.153 20.313 33.2794 20.4647C33.4058 20.6165 33.561 20.7418 33.7359 20.8335C33.9109 20.9251 34.1023 20.9813 34.299 20.9989C34.4956 21.0186 34.6942 20.9989 34.8831 20.9409C35.072 20.8829 35.2474 20.7877 35.399 20.661C35.5506 20.5343 35.6753 20.3785 35.7659 20.2029C35.8565 20.0273 35.9111 19.8354 35.9265 19.6384C35.9745 19.0939 36 18.5494 36 17.9989C35.9998 14.5085 34.9849 11.0935 33.0788 8.16964C31.1726 5.24576 28.4575 2.93913 25.264 1.53058C22.0705 0.122035 18.5364 -0.327664 15.0919 0.236235C11.6474 0.800135 8.4412 2.35331 5.86356 4.70665C3.28593 7.06 1.4481 10.112 0.573826 13.4911C-0.300445 16.8701 -0.173442 20.4305 0.939375 23.7387C2.05219 27.0469 4.10281 29.9601 6.84158 32.1238C9.58034 34.2875 12.8891 35.6083 16.365 35.9254H16.5015C16.8993 35.9431 17.2879 35.802 17.5817 35.5332C17.8755 35.2644 18.0505 34.8899 18.0683 34.4921C18.086 34.0943 17.9449 33.7057 17.6761 33.4119C17.4073 33.1181 17.0328 32.9431 16.635 32.9254V32.9374Z" fill="#5184DC"/>
<path d="M16.5004 10.5V17.379L12.4399 21.4395C12.2966 21.5779 12.1823 21.7434 12.1037 21.9264C12.0251 22.1094 11.9837 22.3062 11.982 22.5054C11.9803 22.7045 12.0182 22.9021 12.0936 23.0864C12.1691 23.2708 12.2804 23.4382 12.4213 23.5791C12.5621 23.7199 12.7296 23.8313 12.9139 23.9067C13.0983 23.9821 13.2958 24.0201 13.495 24.0184C13.6941 24.0166 13.891 23.9752 14.074 23.8966C14.257 23.818 14.4225 23.7037 14.5609 23.5605L19.0608 19.0605C19.3422 18.7792 19.5003 18.3978 19.5003 18V10.5C19.5003 10.1022 19.3423 9.72064 19.061 9.43934C18.7797 9.15804 18.3982 9 18.0003 9C17.6025 9 17.221 9.15804 16.9397 9.43934C16.6584 9.72064 16.5004 10.1022 16.5004 10.5Z" fill="#5184DC"/>
</g>
<defs>
<clipPath id="clip0_342_243">
<rect width="36" height="36" fill="white"/>
</clipPath>
</defs>
</svg>
