<svg width="36" height="36" viewBox="0 0 36 36" fill="none" xmlns="http://www.w3.org/2000/svg">
<g clip-path="url(#clip0_342_237)">
<path d="M34.5001 16.5C34.1022 16.5 33.7207 16.658 33.4394 16.9393C33.1581 17.2206 33.0001 17.6022 33.0001 18C33.0123 21.4879 31.8127 24.8718 29.6064 27.5732C27.4 30.2747 24.324 32.126 20.9039 32.8107C17.4838 33.4955 13.9321 32.9711 10.8559 31.3273C7.77956 29.6835 5.36968 27.0223 4.03812 23.7985C2.70656 20.5748 2.53598 16.9886 3.55555 13.653C4.57511 10.3174 6.72152 7.43949 9.6279 5.51111C12.5343 3.58273 16.0202 2.72363 19.4898 3.08066C22.9594 3.43768 26.1973 4.98866 28.6501 7.4685C28.6007 7.48196 28.5507 7.49248 28.5001 7.5H24.0001C23.6023 7.5 23.2207 7.65804 22.9394 7.93934C22.6581 8.22065 22.5001 8.60218 22.5001 9C22.5001 9.39783 22.6581 9.77936 22.9394 10.0607C23.2207 10.342 23.6023 10.5 24.0001 10.5H28.5001C29.6935 10.5 30.8381 10.0259 31.6821 9.18198C32.526 8.33807 33.0001 7.19348 33.0001 6V1.5C33.0001 1.10218 32.842 0.720645 32.5607 0.43934C32.2794 0.158035 31.8979 0 31.5001 0C31.1022 0 30.7207 0.158035 30.4394 0.43934C30.1581 0.720645 30.0001 1.10218 30.0001 1.5V4.5975C26.9289 1.8518 23.0085 0.24325 18.8938 0.0406539C14.7792 -0.161942 10.7197 1.05369 7.39369 3.4844C4.06764 5.91512 1.67653 9.41368 0.619911 13.3955C-0.436704 17.3772 -0.0948111 21.601 1.58846 25.361C3.27173 29.121 6.1944 32.1895 9.8681 34.0536C13.5418 35.9177 17.744 36.4646 21.7724 35.6029C25.8009 34.7412 29.4116 32.523 32.0011 29.3191C34.5907 26.1152 36.0023 22.1196 36.0001 18C36.0001 17.6022 35.842 17.2206 35.5607 16.9393C35.2794 16.658 34.8979 16.5 34.5001 16.5Z" fill="#40D260"/>
<path d="M18.0002 9C17.6024 9 17.2209 9.15804 16.9396 9.43934C16.6583 9.72064 16.5002 10.1022 16.5002 10.5V18C16.5003 18.3978 16.6584 18.7793 16.9397 19.0605L21.4397 23.5605C21.7226 23.8337 22.1016 23.9849 22.4948 23.9815C22.8881 23.9781 23.2644 23.8203 23.5425 23.5422C23.8206 23.2641 23.9783 22.8879 23.9818 22.4946C23.9852 22.1013 23.834 21.7224 23.5607 21.4395L19.5002 17.379V10.5C19.5002 10.1022 19.3422 9.72064 19.0609 9.43934C18.7796 9.15804 18.3981 9 18.0002 9V9Z" fill="#40D260"/>
</g>
<defs>
<clipPath id="clip0_342_237">
<rect width="36" height="36" fill="white"/>
</clipPath>
</defs>
</svg>
