<svg width="36" height="36" viewBox="0 0 36 36" fill="none" xmlns="http://www.w3.org/2000/svg">
<g clip-path="url(#clip0_342_240)">
<path d="M18 0C13.5683 0.00315955 9.2942 1.64493 6 4.6095V1.5C6 1.10218 5.84197 0.720644 5.56066 0.43934C5.27936 0.158035 4.89783 0 4.5 0C4.10218 0 3.72064 0.158035 3.43934 0.43934C3.15804 0.720644 3 1.10218 3 1.5V6C3 7.19347 3.47411 8.33807 4.31802 9.18198C5.16193 10.0259 6.30653 10.5 7.5 10.5H12C12.3978 10.5 12.7794 10.342 13.0607 10.0607C13.342 9.77936 13.5 9.39783 13.5 9C13.5 8.60218 13.342 8.22065 13.0607 7.93934C12.7794 7.65804 12.3978 7.5 12 7.5H7.5C7.44942 7.4925 7.39933 7.48199 7.35 7.4685C9.79428 5.00674 13.0172 3.46961 16.4686 3.1195C19.92 2.76938 23.3859 3.62798 26.2748 5.54874C29.1636 7.4695 31.2963 10.3333 32.3088 13.6514C33.3213 16.9695 33.1507 20.5361 31.8264 23.7425C30.502 26.9489 28.1058 29.5962 25.0469 31.2326C21.988 32.869 18.456 33.3931 15.0537 32.7153C11.6515 32.0376 8.58988 30.2 6.39159 27.5163C4.19329 24.8326 2.99456 21.4691 3 18C3 17.6022 2.84197 17.2206 2.56066 16.9393C2.27936 16.658 1.89782 16.5 1.5 16.5C1.10218 16.5 0.720644 16.658 0.43934 16.9393C0.158035 17.2206 0 17.6022 0 18C0 21.5601 1.05568 25.0402 3.03355 28.0003C5.01141 30.9604 7.82263 33.2675 11.1117 34.6298C14.4008 35.9922 18.02 36.3487 21.5116 35.6541C25.0033 34.9596 28.2106 33.2453 30.7279 30.7279C33.2453 28.2106 34.9596 25.0033 35.6541 21.5116C36.3487 18.02 35.9922 14.4008 34.6298 11.1117C33.2675 7.82263 30.9604 5.01141 28.0003 3.03355C25.0402 1.05568 21.5601 0 18 0V0Z" fill="#F56161"/>
<path d="M17.9999 9C17.6021 9 17.2205 9.15804 16.9392 9.43934C16.6579 9.72064 16.4999 10.1022 16.4999 10.5V18C16.5 18.3978 16.6581 18.7793 16.9394 19.0605L21.4394 23.5605C21.7223 23.8337 22.1012 23.9849 22.4945 23.9815C22.8878 23.9781 23.264 23.8203 23.5421 23.5422C23.8202 23.2641 23.978 22.8879 23.9814 22.4946C23.9848 22.1013 23.8336 21.7224 23.5604 21.4395L19.4999 17.379V10.5C19.4999 10.1022 19.3418 9.72064 19.0605 9.43934C18.7792 9.15804 18.3977 9 17.9999 9Z" fill="#F56161"/>
</g>
<defs>
<clipPath id="clip0_342_240">
<rect width="36" height="36" fill="white"/>
</clipPath>
</defs>
</svg>
