<svg width="24" height="24" viewBox="0 0 24 24" fill="none" xmlns="http://www.w3.org/2000/svg">
<path d="M12.3 21.9999H12.2C10.8285 21.9895 9.4729 21.7055 8.21254 21.1646C6.95219 20.6237 5.81242 19.8368 4.85998 18.8499C3.09382 16.9612 2.08986 14.4852 2.04184 11.8998C1.99383 9.31446 2.90517 6.80291 4.59998 4.84992C5.69186 3.62627 7.06451 2.68601 8.59998 2.10993C8.77914 2.04098 8.97436 2.02507 9.16232 2.06408C9.35029 2.10309 9.52305 2.19538 9.65998 2.32993C9.78679 2.45925 9.87611 2.62058 9.91838 2.79671C9.96065 2.97283 9.95429 3.15713 9.89998 3.32993C9.35193 4.83086 9.24335 6.45697 9.58698 8.01745C9.9306 9.57792 10.7122 11.008 11.84 12.1399C12.9783 13.2643 14.4118 14.0432 15.9745 14.3865C17.5372 14.7299 19.1652 14.6236 20.67 14.0799C20.8491 14.0169 21.0424 14.0061 21.2274 14.0489C21.4124 14.0917 21.5814 14.1863 21.7146 14.3216C21.8478 14.4569 21.9398 14.6274 21.9797 14.813C22.0196 14.9987 22.0058 15.1918 21.94 15.3699C21.4291 16.7336 20.6311 17.9716 19.6 18.9999C18.6408 19.9562 17.5021 20.7136 16.2494 21.2284C14.9966 21.7432 13.6544 22.0054 12.3 21.9999Z" fill="white"/>
</svg>
